<?xml version="1.0" encoding="iso-8859-1"?>
<!-- Uploaded to: SVG Repo, www.svgrepo.com, Generator: SVG Repo Mixer Tools -->
<!DOCTYPE svg PUBLIC "-//W3C//DTD SVG 1.1//EN" "http://www.w3.org/Graphics/SVG/1.1/DTD/svg11.dtd">
<svg version="1.1" id="Capa_1" xmlns="http://www.w3.org/2000/svg" xmlns:xlink="http://www.w3.org/1999/xlink" 
	 viewBox="0 0 445.262 445.262" xml:space="preserve">
<g>
	<path style="fill:#FFE473;" d="M213.797,293.843l-1.529-9.883c20.058-3.103,38.458-13.316,51.81-28.758
		c13.488-15.599,20.916-35.562,20.916-56.211c0-23.712-9.446-45.795-26.597-62.181l6.908-7.23
		c19.145,18.291,29.689,42.942,29.689,69.412c0,23.051-8.293,45.337-23.352,62.752C256.739,278.977,236.196,290.377,213.797,293.843
		z"/>
	<path style="fill:#FFE473;" d="M155.616,284.629c-32.44-16.468-52.592-49.283-52.592-85.639c0-52.926,43.059-95.985,95.985-95.985
		c9.142,0,18.188,1.284,26.885,3.817l-2.796,9.601c-7.789-2.268-15.894-3.418-24.089-3.418c-47.412,0-85.985,38.573-85.985,85.985
		c0,32.569,18.055,61.967,47.118,76.722L155.616,284.629z"/>
	<path style="fill:#FFE473;" d="M199.009,278.354c-23.171,0-45.125-10.09-60.233-27.684l5.311-4.561
		c13.777,16.043,33.796,25.245,54.923,25.245c39.901,0,72.364-32.462,72.364-72.364c0-39.901-32.462-72.364-72.364-72.364
		c-12.943,0-25.643,3.457-36.724,9.997l-3.558-6.028c12.159-7.176,26.088-10.969,40.282-10.969
		c43.761,0,79.364,35.603,79.364,79.364C278.372,242.752,242.77,278.354,199.009,278.354z"/>
	<path style="fill:#FFE473;" d="M199.009,234.259c-19.447,0-35.269-15.821-35.269-35.269c0-19.447,15.821-35.268,35.269-35.268
		c19.447,0,35.268,15.821,35.268,35.268c0,4.759-0.933,9.378-2.773,13.729l-7.368-3.116c1.421-3.36,2.141-6.931,2.141-10.613
		c0-15.036-12.232-27.268-27.268-27.268c-15.036,0-27.269,12.232-27.269,27.268c0,15.036,12.232,27.269,27.269,27.269
		c2.768,0,5.496-0.412,8.11-1.225l2.376,7.639C206.111,233.725,202.583,234.259,199.009,234.259z"/>
	<path style="fill:#FFE473;" d="M96.032,289.501c-22.003-25.016-34.122-57.16-34.122-90.511c0-32.463,11.552-63.952,32.529-88.667
		l9.149,7.765C84.45,140.637,73.91,169.368,73.91,198.99c0,30.433,11.056,59.762,31.132,82.585L96.032,289.501z"/>
	<path style="fill:#FFE473;" d="M312.732,146.793c-20.361-44.286-65-72.901-113.723-72.901c-17.383,0-34.205,3.496-49.999,10.39
		l-4.801-10.998c17.317-7.559,35.754-11.392,54.799-11.392c53.395,0,102.313,31.358,124.626,79.889L312.732,146.793z"/>
	<path style="fill:#FFE473;" d="M199.009,336.089c-25.073,0-49.604-6.832-70.94-19.758l6.218-10.264
		c19.462,11.79,41.842,18.021,64.723,18.021c59.171,0,110.714-42.006,122.556-99.88l11.757,2.405
		c-6.239,30.487-22.967,58.247-47.104,78.167C261.754,324.969,230.782,336.089,199.009,336.089z"/>
	<path style="fill:#FFE473;" d="M228.223,346.04l-1.356-6.867c66.658-13.17,115.038-72.125,115.038-140.183
		c0-35.283-12.965-69.162-36.506-95.398l5.21-4.675c24.695,27.522,38.296,63.062,38.296,100.073
		C348.905,270.381,298.151,332.224,228.223,346.04z"/>
	<path style="fill:#FFE473;" d="M162.213,344.336c-26.332-6.646-50.415-20.41-69.646-39.804
		c-19.241-19.404-32.803-43.617-39.22-70.021l6.802-1.653c6.116,25.166,19.045,48.246,37.389,66.745
		c18.334,18.49,41.291,31.611,66.388,37.945L162.213,344.336z"/>
	<path style="fill:#FFE473;" d="M49.585,210.99c-0.314-3.967-0.473-8.004-0.473-12c0-82.653,67.243-149.896,149.896-149.896v7
		c-78.793,0-142.896,64.103-142.896,142.896c0,3.812,0.152,7.663,0.452,11.447L49.585,210.99z"/>
	<path style="fill:#FFE473;" d="M199.009,397.98c-60.846,0-117.547-27.298-155.564-74.895l4.688-3.744
		c36.872,46.163,91.864,72.639,150.876,72.639c41.063,0,80.266-12.723,113.371-36.792l3.528,4.853
		C281.771,384.861,241.348,397.98,199.009,397.98z"/>
	<path style="fill:#FFE473;" d="M360.737,314.951l-4.873-3.5c23.64-32.913,36.135-71.801,36.135-112.461
		C391.998,92.575,305.424,6,199.009,6C144.902,6,92.936,28.933,56.435,68.919l-4.432-4.045C89.638,23.646,143.22,0,199.009,0
		c109.723,0,198.99,89.267,198.99,198.99C397.998,240.914,385.114,281.012,360.737,314.951z"/>
	<rect x="193.509" y="13.631" style="fill:#FFE473;" width="11" height="13.71"/>
	<rect x="193.509" y="370.639" style="fill:#FFE473;" width="11" height="13.71"/>
	
		<rect x="145.953" y="21.069" transform="matrix(0.2588 0.9659 -0.9659 0.2588 138.9232 -127.9089)" style="fill:#FFE473;" width="13.71" height="11"/>
	
		<rect x="238.353" y="365.911" transform="matrix(0.2588 0.9659 -0.9659 0.2588 540.5034 38.433)" style="fill:#FFE473;" width="13.71" height="11"/>
	
		<rect x="102.901" y="38.902" transform="matrix(0.5 0.866 -0.866 0.5 93.3292 -72.8509)" style="fill:#FFE473;" width="13.711" height="11"/>
	
		<rect x="281.405" y="348.079" transform="matrix(0.5 0.866 -0.866 0.5 450.3365 -72.8521)" style="fill:#FFE473;" width="13.71" height="11"/>
	
		<rect x="65.932" y="67.269" transform="matrix(0.7071 0.7071 -0.7071 0.7071 72.7746 -30.1548)" style="fill:#FFE473;" width="13.71" height="11"/>
	
		<rect x="37.565" y="104.238" transform="matrix(0.866 0.5 -0.5 0.866 60.8227 -7.5074)" style="fill:#FFE473;" width="13.71" height="11"/>
	
		<rect x="364.574" y="239.69" transform="matrix(0.9659 0.2588 -0.2588 0.9659 76.1124 -87.7751)" style="fill:#FFE473;" width="13.71" height="11"/>
	<rect x="13.65" y="193.49" style="fill:#FFE473;" width="13.71" height="11"/>
	<rect x="370.657" y="193.49" style="fill:#FFE473;" width="13.71" height="11"/>
	
		<rect x="365.93" y="145.935" transform="matrix(0.2588 0.9659 -0.9659 0.2588 422.8899 -245.5272)" style="fill:#FFE473;" width="11" height="13.71"/>
	
		<rect x="38.92" y="281.387" transform="matrix(0.5 0.866 -0.866 0.5 271.8354 105.6533)" style="fill:#FFE473;" width="11" height="13.71"/>
	
		<rect x="67.287" y="318.356" transform="matrix(0.7071 0.7071 -0.7071 0.7071 251.278 43.7837)" style="fill:#FFE473;" width="11" height="13.71"/>
	
		<rect x="319.729" y="65.914" transform="matrix(0.7071 0.7071 -0.7071 0.7071 146.7132 -208.6584)" style="fill:#FFE473;" width="11" height="13.71"/>
	
		<rect x="104.257" y="346.724" transform="matrix(0.866 0.5 -0.5 0.866 191.4926 -7.5081)" style="fill:#FFE473;" width="11" height="13.71"/>
	
		<rect x="282.76" y="37.547" transform="matrix(0.866 0.5 -0.5 0.866 60.8196 -138.1806)" style="fill:#FFE473;" width="11" height="13.71"/>
	
		<rect x="147.308" y="364.556" transform="matrix(0.9659 0.2588 -0.2588 0.9659 101.3253 -26.8929)" style="fill:#FFE473;" width="11" height="13.71"/>
	
		<rect x="239.709" y="19.714" transform="matrix(0.9659 0.2588 -0.2588 0.9659 15.2335 -62.5635)" style="fill:#FFE473;" width="11" height="13.71"/>
	<g>
		<path style="fill:#26A3BF;" d="M115.519,339.205v-46.251c0-9.469,7.676-17.145,17.145-17.145h0
			c9.469,0,17.145,7.676,17.145,17.145v30.173L115.519,339.205z"/>
		<path style="fill:#26A3BF;" d="M149.808,324.121v-44.305c0-9.469,7.676-17.145,17.145-17.145h0
			c9.469,0,17.145,7.676,17.145,17.145v49.887"/>
		<path style="fill:#26A3BF;" d="M184.098,307.308v-97.003c0-9.469,7.676-17.145,17.145-17.145h0
			c9.469,0,17.145,7.676,17.145,17.145v147.474c0,19.63,23.733,29.461,37.614,15.58l24.157-24.157
			c6.81-6.81,17.879-6.722,24.58,0.196v0c6.368,6.575,6.49,16.979,0.277,23.701l-53.954,58.38
			c-8.121,8.787-19.542,13.783-31.506,13.783H147.17c-36.418,0-65.941-29.523-65.941-65.941v-62.844
			c0-9.469,7.676-17.145,17.145-17.145h0c9.469,0,17.145,7.676,17.145,17.145"/>
	</g>
	<path style="fill:#FFE473;" d="M399.258,73.869c-8.225,0-15.958-3.203-21.773-9.019c-12.006-12.006-12.006-31.541,0-43.547
		c5.816-5.816,13.549-9.019,21.774-9.019c8.225,0,15.958,3.203,21.774,9.019h0h0c5.816,5.816,9.019,13.549,9.019,21.774
		s-3.203,15.958-9.02,21.774C415.216,70.666,407.483,73.869,399.258,73.869z M399.258,19.284c-6.355,0-12.33,2.475-16.824,6.969
		c-9.276,9.277-9.276,24.371,0,33.648c4.494,4.494,10.469,6.969,16.824,6.969c6.355,0,12.33-2.475,16.824-6.969
		c4.494-4.494,6.969-10.469,6.969-16.824s-2.475-12.33-6.969-16.824h0C411.588,21.759,405.613,19.284,399.258,19.284z"/>
	<path style="fill:#FFE473;" d="M381.758,438.524c-13.317,0-25.836-5.186-35.252-14.602c-19.438-19.438-19.438-51.067,0-70.506
		c19.438-19.438,51.067-19.438,70.505,0l0,0c9.417,9.417,14.602,21.936,14.602,35.253s-5.186,25.836-14.602,35.253
		S395.074,438.524,381.758,438.524z M381.758,349.833c-9.95,0-19.899,3.787-27.474,11.362c-7.339,7.339-11.38,17.096-11.38,27.475
		s4.042,20.136,11.38,27.475c7.338,7.339,17.096,11.38,27.474,11.38s20.136-4.042,27.475-11.38s11.38-17.096,11.38-27.475
		s-4.042-20.136-11.38-27.475C401.658,353.62,391.707,349.833,381.758,349.833z"/>
	
		<rect x="365.47" y="57.824" transform="matrix(0.7071 0.7071 -0.7071 0.7071 159.9294 -239.4035)" style="fill:#FFE473;" width="7" height="31.08"/>
	
		<rect x="288.363" y="328.111" transform="matrix(0.7071 0.7071 -0.7071 0.7071 329.5847 -132.4709)" style="fill:#FFE473;" width="72.674" height="7.001"/>
	<g>
		<path style="fill:#1E94A8;" d="M115.322,316.503v22.792h-6.2v-36.015c0.4,0.34,0.793,0.695,1.163,1.065
			C113.396,307.455,115.322,311.752,115.322,316.503z"/>
		<path style="fill:#1E94A8;" d="M149.713,292.91v35.155h-6.208v-48.378c0.408,0.34,0.801,0.695,1.171,1.065
			C147.788,283.863,149.713,288.168,149.713,292.91z"/>
		<path style="fill:#1E94A8;" d="M184.098,279.732v48.763h-6.208v-61.979c0.408,0.34,0.801,0.695,1.171,1.065
			C182.172,270.692,184.098,274.982,184.098,279.732z"/>
	</g>
</g>
</svg>