<?xml version="1.0" encoding="utf-8"?>

<!DOCTYPE svg PUBLIC "-//W3C//DTD SVG 1.1//EN" "http://www.w3.org/Graphics/SVG/1.1/DTD/svg11.dtd">
<svg version="1.1" id="Layer_1" xmlns="http://www.w3.org/2000/svg" xmlns:xlink="http://www.w3.org/1999/xlink" x="0px" y="0px"
	 viewBox="0 0 1851.088 1667.617" style="enable-background:new 0 0 1851.088 1667.617;" xml:space="preserve">
<style type="text/css">
	.st0{enable-background:new    ;}
	.st1{fill:#E6E6E6;}
	.st2{fill:#D44117;}
	.st3{fill:#F2A438;}
	.st4{fill:#6BB427;}
	.st5{fill:#5775B1;}
</style>
<g class="st0">
	<g>
		<g>
			<g>
				<path class="st1" d="M848.496,158.422c12.294-14.993,39.171-3.295,41.043,17.076c1.169,12.627-8.581,21.702-20.876,21.17
					C848.923,195.798,837.105,172.315,848.496,158.422L848.496,158.422z"/>
				<path class="st1" d="M784.054,193.134c0.456,0.306,7.067,5.172,7.509,5.496c34.196-35.506,89.122,16.12,57.645,52.693
					l6.193,6.972C898.057,213.199,825.539,145.514,784.054,193.134z"/>
				<path class="st1" d="M852.027,190.395c-12.93-11.839-38.892-3.973-58.617,22.838c15.053,11.924,26.78,22.55,41.071,37.577
					c24.414-21.633,30.731-48.342,17.545-60.415L852.027,190.395z"/>
				<g>
					<path class="st1" d="M781.312,286.828c-0.586-0.575-5.408-5.346-6.028-5.88l45.235-47.997c0.78,0.682,1.239,1.159,7.261,7.073
						L781.312,286.828z"/>
					<path class="st1" d="M768.564,274.795c-0.602-0.582-0.663-0.606-6.335-5.439l42.495-50.439c6.041,5.149,6.817,5.782,7.676,6.6
						L768.564,274.795z"/>
				</g>
			</g>
			<g>
				<g>
					<path class="st1" d="M751.874,98.158c6.434-14.206,27.851-14.775,39.582-1.78c11.756,13.471,5.479,30.416-10.057,33.696
						C762.07,134.137,744.411,114.621,751.874,98.158L751.874,98.158z"/>
					<path class="st1" d="M698.587,148.339l8.675,3.375c23.773-43.007,90.866-7.644,69.095,36.194l7.698,5.227
						C814.489,138.81,726.314,91.785,698.587,148.339z"/>
					<path class="st1" d="M763.616,128.194c-18.386-9.666-40.492,10.8-50.794,37.148c15.492,6.751,29.99,13.748,49.169,25.758
						c12.904-19.159,22.179-52.468,1.624-62.907L763.616,128.194z"/>
					<g>
						<path class="st1" d="M719.727,239.419c-6.502-3.746-5.334-3.108-7.178-4.068l31.49-57.951
							c2.214,1.162,0.482,0.195,8.795,4.976L719.727,239.419z"/>
						<path class="st1" d="M704.611,231.173c-0.32-0.181-7.117-3.419-7.449-3.578l28.049-59.692c0.605,0.289,8.521,4.06,9.107,4.386
							L704.611,231.173z"/>
					</g>
				</g>
				<g>
					<path class="st1" d="M681.22,53.021c11.34,7.71,13.253,20.949,5.383,29.938c-15.016,17.181-46.66,3.581-42.723-18.231
						C643.88,54.3,663.274,40.969,681.22,53.021z"/>
					<path class="st1" d="M604.424,126.28c9.107,1.064,7.388,0.848,9.266,1.131c12.578-46.543,85.92-30.451,76.101,17.878
						l8.797,3.051c3.212-12.614,0.939-25.105-5.237-35.106C670.703,77.206,613.761,84.208,604.424,126.28z"/>
					<path class="st1" d="M662.403,90.802c-22.105-4.927-36.974,25.078-40,48.533c15.1,2.293,33.68,6.414,54.313,12.716
						c7.545-21.771,8.079-55.987-14.314-61.249L662.403,90.802z"/>
					<g>
						<polygon class="st1" points="648.083,209.518 639.933,207.35 655.803,143.334 665.603,145.934 						"/>
						<path class="st1" d="M630.947,205.298c-4.417-1.01-2.381-0.598-8.344-1.709l12.505-64.757c6.949,1.31,4.661,0.841,9.946,2.039
							L630.947,205.298z"/>
					</g>
				</g>
				<g>
					<path class="st1" d="M557.27,35.439c21.313,0.338,31.155,23.353,15.619,36.354c-15.159,12.753-38.848,2.576-39.303-15.281
						C533.586,43.642,544.618,35.251,557.27,35.439z"/>
					<path class="st1" d="M507.339,124.646c5.719-0.475,3.722-0.328,9.331-0.681c3.438-49.204,76.967-46.323,78.473,1.287
						c1.754,0.144,0.528,0.004,9.28,1.027C605.313,64.708,509.065,62.207,507.339,124.646z"/>
					<path class="st1" d="M556.634,78.238c-22.378-0.531-30.683,32.654-29.016,55.682c18.71-0.811,42.201-0.249,56.277,0.916
						c3.258-30.632-8.915-56.306-27.262-56.599L556.634,78.238z"/>
					<g>
						<path class="st1" d="M568.506,197.261c-7.208-0.361-5.284-0.295-8.824-0.344l1.714-65.931
							c4.039,0.063,1.64-0.025,10.203,0.394L568.506,197.261z"/>
						<path class="st1" d="M550.031,196.761c-2.591-0.06-4.536-0.022-8.924,0.026l-1.046-65.945
							c5.025-0.055,7.226-0.096,10.228-0.034L550.031,196.761z"/>
					</g>
				</g>
			</g>
		</g>
		<g>
			<g>
				<path class="st2" d="M851.35,160.844c12.174-14.598,39.089-3.598,40.929,17.35c1.068,11.766-7.893,21.602-21.044,21.002
					C851.777,198.26,839.79,174.706,851.35,160.844L851.35,160.844z"/>
				<path class="st2" d="M786.632,195.008l7.501,5.508c34.916-35.637,88.353,17.539,57.198,53.194
					c4.585,5.155,3.281,3.636,6.114,7.042C900.953,215.419,828.177,148.179,786.632,195.008z"/>
				<path class="st2" d="M854.65,192.799c-16.836-15.317-44.494,3.242-58.81,22.359c15.831,12.531,27.67,24.114,40.786,37.905
					c20.439-17.827,33.414-46.545,18.024-60.266L854.65,192.799z"/>
				<g>
					<polygon class="st2" points="783.173,288.646 777.159,282.743 822.78,235.113 830.014,242.216 					"/>
					<path class="st2" d="M770.469,276.548c-3.275-3.012-1.733-1.663-6.28-5.52l42.913-50.084c5.261,4.481,3.922,3.312,7.603,6.685
						L770.469,276.548z"/>
				</g>
			</g>
			<g>
				<g>
					<path class="st3" d="M755.276,99.763c12.189-26.297,57.668-1.166,42.929,22.958
						C784.239,145.579,743.924,124.252,755.276,99.763L755.276,99.763z"/>
					<path class="st3" d="M701.559,149.495l8.675,3.373c24.209-42.927,90.677-6.365,68.759,36.83c6.473,4.395,4.794,3.22,7.64,5.31
						C817.667,140.714,729.901,92.888,701.559,149.495z"/>
					<path class="st3" d="M766.781,129.859c-20.089-10.581-41.879,13.674-51.116,36.714c18.523,8.011,33.381,16.419,48.951,26.169
						c19.353-28.206,17.131-55.261,2.164-62.884L766.781,129.859z"/>
					<g>
						<polygon class="st3" points="721.937,240.683 714.786,236.568 746.777,178.893 755.538,183.93 						"/>
						<path class="st3" d="M706.862,232.366c-3.389-1.795-1.843-1.025-7.4-3.669l28.563-59.448c6.684,3.196,4.633,2.165,9.053,4.492
							L706.862,232.366z"/>
					</g>
				</g>
				<g>
					<path class="st4" d="M691.461,60.401c3.176,4.553,4.479,10.554,2.77,16.303c-7.833,26.346-51.62,14.744-46.717-11.292
						C647.515,50.586,677.72,40.415,691.461,60.401z"/>
					<path class="st4" d="M607.601,126.651c5.69,0.664,3.715,0.401,9.249,1.242c13.299-47.58,85.927-28.661,75.955,18.44
						c6.555,2.269,4.651,1.567,8.754,3.164C717.077,90.621,622.02,64.148,607.601,126.651z"/>
					<path class="st4" d="M665.857,91.587c-19.802-4.51-36.573,20.39-40.37,48.216c21.935,3.908,33.921,6.967,54.199,13.152
						c11.411-32.081,2.413-57.942-13.83-61.368L665.857,91.587z"/>
					<g>
						<polygon class="st4" points="650.602,210.177 642.448,208.025 658.828,144.138 668.629,146.735 						"/>
						<path class="st4" d="M633.501,205.879c-7.606-1.733-5.454-1.276-8.306-1.805l12.994-64.661c3.236,0.61,0.924,0.111,9.92,2.15
							L633.501,205.879z"/>
					</g>
				</g>
				<g>
					<path class="st5" d="M577.932,42.272c20.217,19.413-11.923,48.653-33.802,28.94C521.861,50.928,556.224,21.455,577.932,42.272z
						"/>
					<path class="st5" d="M510.529,124.381c2.9-0.241,5.287-0.363,9.343-0.593c3.696-48.955,77.228-45.968,78.453,1.777l9.273,1.085
						C608.807,65.202,512.58,61.956,510.529,124.381z"/>
					<path class="st5" d="M560.118,78.294c-22.336-0.351-30.901,32.299-29.357,55.511c16.052-0.593,37.131-0.289,56.251,1.289
						c2.623-23.164-4.569-56.412-26.895-56.8L560.118,78.294z"/>
					<g>
						<polygon class="st5" points="571.222,197.393 562.423,196.955 564.551,131.035 574.747,131.534 						"/>
						<path class="st5" d="M552.772,196.809c-5.451-0.098-3.547-0.085-8.904-0.058l-0.648-65.951
							c6.276-0.032,4.092-0.042,10.224,0.058L552.772,196.809z"/>
					</g>
				</g>
			</g>
		</g>
	</g>
	<g>
		<g>
			<g>
				<path class="st1" d="M424.034,54.666c17.958-23.94,57.805-1.053,38.472,23.008c-12.382,15.385-37.923,10.438-42.048-6.949
					C420.458,69.725,418.047,62.687,424.034,54.666z"/>
				<path class="st1" d="M408.932,142.918c8.084-2.481,6.551-2.034,8.936-2.669c-7.311-49.211,66.192-60.77,76.969-14.536
					c1.21-0.142-0.385,0.001,9.312-0.802C492.321,62.08,397.253,83.187,408.932,142.918z"/>
				<path class="st1" d="M447.737,87.22c-17.695,3.353-26.021,29.851-17.118,60.475c15.977-4.264,38.995-8.473,55.065-10.357
					c-3.023-33.121-21.298-53.509-37.948-50.118L447.737,87.22z"/>
				<g>
					<path class="st1" d="M482.879,201.551c-8.595,1.307-6.833,1.019-8.604,1.361l-11.376-64.965
						c1.896-0.361,0.363-0.117,10.063-1.6L482.879,201.551z"/>
					<path class="st1" d="M465.01,204.672c-3.428,0.64-1.482,0.228-8.451,1.825l-14.483-64.344c8.059-1.834,5.975-1.392,9.948-2.144
						L465.01,204.672z"/>
				</g>
			</g>
			<g>
				<g>
					<path class="st1" d="M314.818,108.94c-6.836-13.533,5.079-30.676,22.988-31.899c21.562-0.881,29.589,22.085,14.881,35.771
						C341.361,123.953,321.508,122.185,314.818,108.94L314.818,108.94z"/>
					<path class="st1" d="M320.498,181.918l8.01-4.745c-18.187-44.553,50.164-76.226,71.517-31.492
						c0.575-0.223,8.318-2.582,8.908-2.763C384.634,85.414,294.003,124.968,320.498,181.918z"/>
					<path class="st1" d="M345.427,118.622c-14.209,5.988-20.73,31.457-2.779,62.834c15.286-8.243,35.226-16.959,50.997-22.454
						c-8.382-26.057-29.188-48.737-48.219-40.38L345.427,118.622z"/>
					<g>
						<path class="st1" d="M405.219,222.193c-4.786,1.872-6.001,2.304-7.845,3.162l-25.702-60.74
							c2.238-1.026,3.662-1.544,9.404-3.799L405.219,222.193z"/>
						<path class="st1" d="M388.984,229.037c-2.07,0.899-0.483,0.159-7.577,3.63l-28.965-59.253
							c8.359-4.077,6.718-3.307,9.142-4.369L388.984,229.037z"/>
					</g>
				</g>
				<g>
					<path class="st1" d="M220.669,172.445c-8.356-9.456-4.427-24.369,5.704-32.035c26.16-20.331,50.623,13.937,26.018,33.03
						C240.883,182.114,227.517,180.195,220.669,172.445L220.669,172.445z"/>
					<path class="st1" d="M244.697,241.645l6.553-6.608c-28.843-38.386,29.561-86.769,61.3-48.276
						c2.913-1.895,1.151-0.816,7.948-4.844C283.275,132.101,203.859,192.55,244.697,241.645z"/>
					<path class="st1" d="M252.863,174.033c-11.628,9.083-13.185,34.751,13.132,61.545c14.508-13.426,32.373-27.111,43.606-34.403
						c-12.264-19.634-38.419-41.291-56.739-27.141L252.863,174.033z"/>
					<g>
						<path class="st1" d="M336.475,259.519c-4.596,3.248-2.937,2.02-6.662,4.934l-40.027-52.419
							c4.565-3.553,2.674-2.144,8.124-6.019L336.475,259.519z"/>
						<polygon class="st1" points="322.695,269.969 316.391,275.339 273.401,225.322 281.11,218.778 						"/>
					</g>
				</g>
				<g>
					<path class="st1" d="M139.364,232.072c2.734-6.915,10.009-15.117,19.603-16.774c28.013-5.206,31.876,38.532,3.138,45.216
						C145.51,264.369,132.768,249.589,139.364,232.072z"/>
					<path class="st1" d="M186.48,318.716c0.313-0.542,4.345-7.536,4.689-8.056c-38.384-30.66,7.255-90.877,47.101-62.285
						c3.43-3.772,1.996-2.265,6.427-6.729C196.642,203.517,134.987,281.35,186.48,318.716z"/>
					<path class="st1" d="M177.326,251.287c-13.845,18.15,8.248,44.171,28.281,56.201c10.099-15.88,24.789-34.916,33.478-44.446
						c-16.837-15.797-47.714-30.071-61.76-11.754L177.326,251.287z"/>
					<g>
						<path class="st1" d="M279.99,312.594c-3.289,3.914-2.175,2.525-5.21,6.515l-52.071-40.478c3.692-4.824,2.338-3.135,6.32-7.904
							L279.99,312.594z"/>
						<path class="st1" d="M269.256,326.32l-4.801,6.886l-54.235-37.53c0.426-0.611,5.399-7.756,5.809-8.301L269.256,326.32z"/>
					</g>
				</g>
			</g>
		</g>
		<g>
			<g>
				<path class="st2" d="M461.667,47.725c23.881,15.072-2.344,49.894-27.711,35.177C406.979,67.393,436.484,31.824,461.667,47.725z"
					/>
				<path class="st2" d="M411.986,141.981c5.479-1.662,3.564-1.115,8.971-2.553c-6.713-48.049,66.363-61.601,77.068-14.009
					l9.315-0.772C496.219,63.382,400.5,80.752,411.986,141.981z"/>
				<path class="st2" d="M451.191,86.566c-22.199,4.193-23.889,37.938-17.559,60.324c13.549-3.468,34.156-7.451,55.16-9.917
					c-2.808-33.211-21.084-53.759-37.602-50.407L451.191,86.566z"/>
				<g>
					<polygon class="st2" points="485.539,201.142 476.919,202.455 465.996,137.412 476.071,135.871 					"/>
					<path class="st2" d="M467.642,204.177c-6.343,1.189-4.268,0.757-8.485,1.726l-14.018-64.447
						c4.719-1.074,2.582-0.633,9.974-2.032L467.642,204.177z"/>
				</g>
			</g>
			<g>
				<g>
					<path class="st3" d="M318.172,107.301c-6.996-14.135,6.076-30.921,23.23-31.688c21.735-0.785,29.241,22.383,14.6,35.886
						C343.881,122.878,324.504,120.096,318.172,107.301L318.172,107.301z"/>
					<path class="st3" d="M323.241,180.292c5.999-3.558,4.26-2.577,8.076-4.631c-18.275-45.838,51.249-74.895,71.753-30.945
						l8.917-2.735C387.703,83.293,297.485,123.711,323.241,180.292z"/>
					<path class="st3" d="M348.679,117.195c-20.357,8.952-15.452,41.133-3.299,62.788c10.304-5.559,29.811-14.544,51.205-22.006
						c-9.753-31.14-31.533-47.828-47.907-40.781L348.679,117.195z"/>
					<g>
						<polygon class="st3" points="407.651,221.235 399.765,224.322 374.548,163.38 383.991,159.671 						"/>
						<path class="st3" d="M391.369,227.997c-4.638,2.018-3.008,1.261-7.634,3.532l-28.482-59.487
							c5.581-2.721,3.63-1.815,9.197-4.255L391.369,227.997z"/>
					</g>
				</g>
				<g>
					<path class="st4" d="M238.329,133.286c21.215-6.244,34.011,14.504,23.048,31.141c-5.621,8.674-14.733,12.632-22.864,12.363
						C212.409,176.002,213.128,140.898,238.329,133.286z"/>
					<path class="st4" d="M236.878,205.319c-1.57,12.146,2.141,24.409,10.064,34.063c6.383-6.437,5.324-5.378,6.601-6.558
						c-29.271-39.554,31.081-85.577,61.689-47.786l8.01-4.747C297.246,144.895,241.88,163.654,236.878,205.319z"/>
					<path class="st4" d="M255.682,171.84c-15.069,11.712-8.688,39.602,12.586,61.634c10.933-10.126,28.329-23.85,43.932-33.988
						c-16.713-27.264-42.004-38.927-56.519-27.645L255.682,171.84z"/>
					<g>
						<path class="st4" d="M338.563,258.035c-6.899,4.899-5.249,3.684-6.736,4.841l-39.577-52.759
							c1.608-1.242,0.158-0.187,8.205-5.912L338.563,258.035z"/>
						<path class="st4" d="M324.721,268.408c-2.588,1.996-1.22,0.88-6.38,5.279l-42.56-50.384c6.183-5.249,4.698-4.036,7.793-6.44
							L324.721,268.408z"/>
					</g>
				</g>
				<g>
					<path class="st5" d="M161.444,212.321c28.069-5.093,31.518,38.809,2.729,45.231
						C133.669,264.508,131.56,217.719,161.444,212.321z"/>
					<path class="st5" d="M188.079,315.953c3.464-5.987,2.183-3.869,4.804-7.984c-38.689-31.404,8.599-90.391,47.531-61.952
						c0.863-0.949-0.188,0.134,6.527-6.634C199.551,201.124,136.639,278.018,188.079,315.953z"/>
					<path class="st5" d="M179.487,248.457c-13.881,18.171,7.869,44.23,27.788,56.409c8.448-13.295,23.375-32.563,33.897-44.115
						c-24.744-23.613-51.712-25.801-61.686-12.293L179.487,248.457z"/>
					<g>
						<path class="st5" d="M281.638,310.621c-5.307,6.343-4.262,5.06-5.299,6.432l-51.735-40.907
							c1.143-1.499,0.221-0.383,6.425-7.818L281.638,310.621z"/>
						<path class="st5" d="M270.831,324.276c-2.268,2.948-1.121,1.37-4.893,6.805l-53.928-37.97c4.472-6.412,3.164-4.618,5.917-8.22
							L270.831,324.276z"/>
					</g>
				</g>
			</g>
		</g>
	</g>
	<g>
		<g>
			<g>
				<path class="st1" d="M88.016,322.292c18.169-18.31,43.151,1.712,33.38,24.696c-2.455,5.787-6.899,10.118-11.841,12.658
					C87.552,370.626,69.564,341.93,88.016,322.292z"/>
				<path class="st1" d="M146.627,410.502c0.278-1.017,0.33-1.132,2.918-8.879c-43.914-21.126-14.279-89.346,30.812-71.992
					c2.321-4.427,1.304-2.594,4.523-8.151C128.873,296.907,88.505,385.663,146.627,410.502z"/>
				<path class="st1" d="M122.093,347.282c-8.703,20.751,18.454,40.781,40.657,47.864c6.437-17.037,13.579-35.311,22.073-51.478
					c-27.693-15.199-55.931-13.088-62.731,3.616L122.093,347.282z"/>
				<g>
					<path class="st1" d="M236.62,381.743c-2.318,4.877-2.85,5.909-3.62,7.816l-60.319-26.673c0.942-2.304,1.686-3.784,4.266-9.233
						L236.62,381.743z"/>
					<path class="st1" d="M229.327,398.229c-1.812,4.239-1.048,2.307-3.214,8.083l-61.519-23.775
						c2.503-6.628,1.644-4.47,3.766-9.464L229.327,398.229z"/>
				</g>
			</g>
			<g>
				<g>
					<path class="st1" d="M48.605,439.829c3.193-14.821,15.482-21.341,25.874-18.717c26.168,6.608,17.184,50.57-9.577,46.356
						C57.826,467.468,45.111,456.987,48.605,439.829z"/>
					<path class="st1" d="M127.313,505.534c0.718-8,0.509-5.962,0.941-9.285c-47.158-11.667-32.267-84.218,15.753-76.77l2.62-8.977
						C85.585,398.224,66.783,493.4,127.313,505.534z"/>
					<path class="st1" d="M90.525,448.48c-4.604,21.818,25.535,36.238,49.458,38.795c2.557-19.777,7.163-38.665,11.26-54.96
						c-22.407-6.797-56.096-5.646-60.718,16.167L90.525,448.48z"/>
					<g>
						<path class="st1" d="M209.641,459.305c-1.343,5.314-0.918,3.482-1.976,8.564l-64.418-14.148
							c1.29-6.114,0.802-3.988,2.294-9.941L209.641,459.305z"/>
						<path class="st1" d="M205.71,477.066c-0.297,1.379,0.026-0.36-1.476,8.513l-65.028-11.011
							c1.728-10.156,1.434-8.537,1.75-10.025L205.71,477.066z"/>
					</g>
				</g>
				<g>
					<path class="st1" d="M39.239,545.578c3.222-8.641,10.613-14.699,19.572-14.404c18.134,0.605,27.72,24.919,15.108,39.787
						C58.022,590.305,30.145,570.178,39.239,545.578z"/>
					<path class="st1" d="M128.451,602.47l-0.929-9.3c-49.052-1.571-49.053-75.712-1.045-78.341l0.837-9.297
						C65.168,506.095,66.288,603.305,128.451,602.47z"/>
					<path class="st1" d="M80.405,554.599c0.557,20.494,29.322,30.248,56.636,27.306c-1.311-20.756-1.755-34.197-0.691-56.06
						c-33.4-2.768-56.348,11.908-55.945,28.755L80.405,554.599z"/>
					<g>
						<polygon class="st1" points="199.087,539.628 198.979,548.31 133.025,548.372 133.149,538.188 						"/>
						<path class="st1" d="M199.143,557.769c0.219,8.824,0.142,6.785,0.261,8.715l-65.879,3.143
							c-0.121-2.034-0.059-0.249-0.315-10.186L199.143,557.769z"/>
					</g>
				</g>
				<g>
					<path class="st1" d="M50.336,659.196c1.356-8.936,7.71-16.292,16.43-17.788c17.754-3.046,32.053,18.536,22.513,35.472
						C77.151,698.471,46.42,684.703,50.336,659.196z"/>
					<path class="st1" d="M148.618,697.567c-2.442-7.927-1.853-5.948-2.686-8.979c-47.483,7.245-63.22-64.214-16.255-76.848
						c-0.98-7.192-1.167-8.417-1.227-9.269C68.968,615.605,87.226,709.433,148.618,697.567z"/>
					<path class="st1" d="M92.477,659.79c4.227,20.278,35.514,23.573,60.78,15.915c-6.724-24.446-10.282-46.524-11.767-55.16
						c-23.167,2.85-53.507,17.545-49.013,39.246L92.477,659.79z"/>
					<g>
						<path class="st1" d="M205.804,621.535c0.689,4.064,0.321,2.132,1.705,8.776l-64.647,13.063
							c-1.533-7.41-1.123-5.229-1.948-10.043L205.804,621.535z"/>
						<polygon class="st1" points="209.471,639.852 211.596,648.621 147.515,664.229 145.113,654.268 						"/>
					</g>
				</g>
			</g>
		</g>
		<g>
			<g>
				<path class="st2" d="M89.644,318.828c16.313-16.379,39.562-1.949,34.538,20.519c-1.664,7.549-6.622,13.673-13.367,16.976
					C88.397,367.414,71.134,337.65,89.644,318.828z"/>
				<path class="st2" d="M147.598,407.451l2.962-8.864c-43.515-21.282-14.027-89.611,31.281-71.785
					c0.542-1.034-0.238,0.339,4.64-8.085C130.095,293.459,90.216,382.552,147.598,407.451z"/>
				<path class="st2" d="M123.469,344.046c-7.497,17.629,12.045,38.917,40.385,48.173c2.004-5.298,9.904-27.471,22.418-51.309
					c-23.918-13.364-54.579-15.756-62.803,3.137L123.469,344.046z"/>
				<g>
					<polygon class="st2" points="237.754,379.343 234.065,387.112 173.938,360.008 178.289,350.816 					"/>
					<path class="st2" d="M230.375,395.768c-3.108,7.286-2.285,5.271-3.315,8.021l-61.355-24.196
						c1.166-3.089,0.269-0.905,3.883-9.413L230.375,395.768z"/>
				</g>
			</g>
			<g>
				<g>
					<path class="st3" d="M53.022,427.052c14.13-20.845,42.675-6.488,37.49,17.831c-1.313,6.205-5.019,11.49-9.193,14.723
						C61.386,475.021,38.89,449.221,53.022,427.052z"/>
					<path class="st3" d="M127.599,502.349c0.398-4.437,0.184-2.473,1.067-9.271c-47.438-12.163-31.44-84.425,16.238-76.675
						c2.349-8.049,1.852-6.438,2.693-8.953C88.286,395.056,66.283,489.591,127.599,502.349z"/>
					<path class="st3" d="M91.253,445.038c-4.555,22.069,25.847,36.484,49.131,39.141c1.401-14.282,10.074-49.432,11.673-54.896
						c-30.205-9.366-57.375-1.652-60.804,15.756L91.253,445.038z"/>
					<g>
						<path class="st3" d="M210.317,456.63c-1.99,7.861-1.618,6.272-2.107,8.624l-64.316-14.608c0.563-2.67,0.13-0.851,2.417-9.929
							L210.317,456.63z"/>
						<path class="st3" d="M206.27,474.454c-0.923,4.313-0.548,2.28-1.59,8.495l-64.947-11.478
							c1.223-7.197,0.765-4.765,1.874-10.002L206.27,474.454z"/>
					</g>
				</g>
				<g>
					<path class="st4" d="M37.528,551.363c0.082-8.766,4.026-16.128,9.516-20.173c20.545-14.831,43.884,16.246,26.776,36.216
						C60.429,582.849,37.947,573.039,37.528,551.363z"/>
					<path class="st4" d="M128.133,599.285l-0.93-9.3c-48.873-1.89-48.593-76.055-0.439-78.34l0.836-9.297
						C65.953,502.468,65.164,599.619,128.133,599.285z"/>
					<path class="st4" d="M80.331,551.09c0.422,22.601,33.365,30.027,56.514,27.692c-1.284-20.239-1.449-34.185-0.337-56.055
						c-30.668-2.762-55.976,9.616-56.177,28.365L80.331,551.09z"/>
					<g>
						<polygon class="st4" points="199.112,536.948 199.017,545.63 133.064,545.228 133.186,535.044 						"/>
						<polygon class="st4" points="199.071,555.08 199.29,563.792 133.391,566.484 133.128,556.297 						"/>
					</g>
				</g>
				<g>
					<path class="st5" d="M75.58,683.486c-27.676,6.843-37.322-41.034-9.425-45.642C92.927,633.421,101.935,676.97,75.58,683.486
						L75.58,683.486z"/>
					<path class="st5" d="M147.673,694.498c-1.341-4.352-0.774-2.392-2.59-9.004c-48.438,7.117-62.227-64.817-15.837-76.927
						c-0.556-4.076-0.723-5.06-1.113-9.281C67.556,612.369,87.265,705.825,147.673,694.498z"/>
					<path class="st5" d="M91.773,656.389c4.488,21.715,38.488,22.861,60.648,16.278c-2.63-8.882-9.225-39.211-11.396-55.223
						c-23.758,2.771-53.682,17.512-49.252,38.947L91.773,656.389z"/>
					<g>
						<path class="st5" d="M205.342,618.825c1.214,7.138,0.817,5.01,1.604,8.777l-64.724,12.678
							c-0.869-4.197-0.444-1.906-1.842-10.06L205.342,618.825z"/>
						<path class="st5" d="M208.917,637.141c0.7,3.426,0.218,1.313,2.026,8.773l-64.169,15.241c-2.018-8.365-1.49-6.052-2.301-9.981
							L208.917,637.141z"/>
					</g>
				</g>
			</g>
		</g>
	</g>
	<g>
		<g>
			<g>
				<path class="st1" d="M95.962,791.717c-5.086-2.421-9.462-6.962-11.875-12.953c-9.279-22.394,17.454-41.59,34.482-22.866
					C135.138,774.121,116.827,801.502,95.962,791.717z"/>
				<path class="st1" d="M185.13,791.451l-3.962-8.521c-46.362,14.31-71.273-53.176-28.815-73.345
					c-0.33-0.913-0.521-1.582-2.789-8.95C94.103,724.263,127.015,811.799,185.13,791.451z"/>
				<path class="st1" d="M123.917,763.088c7.551,18.72,38.882,17.316,62.518,5.961c-4.682-10.768-12.79-29.426-20.773-52.882
					c-31.24,9.619-47.987,31.447-41.744,46.922L123.917,763.088z"/>
				<g>
					<polygon class="st1" points="229.226,706.254 232.46,714.946 170.892,738.593 167.299,728.948 					"/>
					<polygon class="st1" points="236.202,724.359 239.699,733.017 178.888,758.55 175.023,748.998 					"/>
				</g>
			</g>
			<g>
				<g>
					<path class="st1" d="M159.52,886.393c-24.619,14.086-46.072-26.637-21.358-39.308
						C162.266,834.727,183.939,872.392,159.52,886.393L159.52,886.393z"/>
					<path class="st1" d="M231.725,877.435l-4.891-8.048c-44.692,19.439-76.633-43.882-37.658-69.454
						c-2.077-4.199-1.142-2.237-4.046-8.484C134.864,821.893,176.144,903.813,231.725,877.435z"/>
					<path class="st1" d="M167.774,856.493c8.806,15.953,37.699,14.217,62.74-1.53c-8.931-15.39-18.692-32.872-27.279-50.237
						c-29.57,13.615-43.492,37.534-35.46,51.769L167.774,856.493z"/>
					<g>
						<polygon class="st1" points="265.081,786.81 269.516,795.283 211.369,826.409 206.569,817.244 						"/>
						<polygon class="st1" points="274.532,804.44 279.177,812.86 221.778,845.344 216.772,836.279 						"/>
					</g>
				</g>
				<g>
					<path class="st1" d="M185.308,967.605c-6.764-10.224-4.652-23.727,5.304-30.157c15.858-10.155,36.264,4.522,33.175,22.857
						C220.624,979.199,196.511,984.122,185.308,967.605z"/>
					<path class="st1" d="M286.272,958.845c-3.347-4.566-2.165-2.928-5.523-7.646c-42.36,22.777-80.179-36.224-44.121-65.725
						c-0.347-0.527-4.575-7.499-4.904-8.041C184.414,913.502,233.035,989.67,286.272,958.845z"/>
					<path class="st1" d="M220.839,943.737c11.978,17.743,44.052,6.59,62.309-7.234c-9.103-12.788-21.46-31.088-31.995-47.692
						c-18.939,11.166-42.33,36.71-30.313,54.928L220.839,943.737z"/>
					<g>
						<polygon class="st1" points="310.974,864.986 316.378,873.161 261.449,909.667 255.721,900.999 						"/>
						<polygon class="st1" points="322.312,882.024 327.882,890.136 273.617,927.621 267.732,919.05 						"/>
					</g>
				</g>
				<g>
					<path class="st1" d="M261.193,1060.443c-5.455-0.735-10.697-3.645-14.466-8.441c-14.74-18.807,6.214-43.193,26.656-31.473
						C293.906,1032.163,284.08,1063.468,261.193,1060.443z"/>
					<path class="st1" d="M346.664,1036.205l-6.028-7.269c-41.139,25.701-81.568-30.936-48.769-62.493l-5.594-7.597
						C242.027,998.751,296.423,1069.723,346.664,1036.205z"/>
					<path class="st1" d="M280.453,1025.644c13.109,16.752,44.458,3.331,61.607-11.556c-19.293-23.912-25.078-31.708-35.491-45.401
						c-17.835,12.477-39.467,40.113-26.115,56.959L280.453,1025.644z"/>
					<g>
						<path class="st1" d="M364.515,940.445c5.043,6.636,3.607,4.769,6.062,7.9l-52.117,40.419
							c-2.505-3.195-1.047-1.298-6.343-8.264L364.515,940.445z"/>
						<path class="st1" d="M377.27,956.88c3.643,4.649,4.639,5.943,6.188,7.84l-51.551,41.138c-1.623-1.989-2.704-3.391-6.459-8.181
							L377.27,956.88z"/>
					</g>
				</g>
			</g>
		</g>
		<g>
			<g>
				<path class="st2" d="M110.903,788.881c-26.041,10.998-43.044-33.165-16.488-42.522
					C120.025,737.321,136.217,778.19,110.903,788.881L110.903,788.881z"/>
				<path class="st2" d="M183.773,788.532l-3.963-8.521c-45.774,13.989-71.726-53.253-28.434-73.485l-2.758-8.959
					C93.348,720.859,125.059,808.777,183.773,788.532z"/>
				<path class="st2" d="M122.639,759.916c6.664,16.45,34.367,19.604,62.531,6.224c-8.652-19.894-14.707-35.864-20.527-52.964
					c-21.511,6.506-49.765,25.792-42.004,46.741L122.639,759.916z"/>
				<g>
					<polygon class="st2" points="228.224,703.573 231.464,712.262 169.783,735.616 166.19,725.971 					"/>
					<polygon class="st2" points="235.121,721.688 238.616,730.345 177.69,755.603 173.832,746.049 					"/>
				</g>
			</g>
			<g>
				<g>
					<path class="st3" d="M128.461,873.842c-14.187-26.793,23.505-45.481,37.015-19.945
						C179.304,878.956,143.115,900.425,128.461,873.842z"/>
					<path class="st3" d="M230.049,874.678l-4.881-8.054c-44.377,19.103-76.652-44.051-37.421-69.578
						c-0.273-0.537-3.721-7.97-3.975-8.516C133.078,818.956,174.241,900.955,230.049,874.678z"/>
					<path class="st3" d="M166.141,853.535c10.597,19.164,43.577,10.652,62.771-1.332c-8.878-15.295-17.642-31.293-27.088-50.328
						c-20.186,9.2-45.97,32.166-35.683,51.661L166.141,853.535z"/>
					<g>
						<polygon class="st3" points="263.71,784.195 268.148,792.667 209.888,823.58 205.087,814.415 						"/>
						<polygon class="st3" points="273.096,801.842 277.744,810.26 220.233,842.545 215.227,833.481 						"/>
					</g>
				</g>
				<g>
					<path class="st4" d="M179.807,948.112c4.908-27.519,46.852-18.559,42.075,9.419
						C217.08,985.998,174.795,976.398,179.807,948.112z"/>
					<path class="st4" d="M284.356,956.243c-3.359-4.69-2.207-3.077-5.48-7.676c-42.442,22.689-80.296-36.325-43.937-65.842
						l-4.891-8.049C182.595,910.681,231.101,986.976,284.356,956.243z"/>
					<path class="st4" d="M218.991,940.941c9.233,14.162,37.361,11.74,62.299-7.049c-7.359-10.337-19.239-27.907-31.849-47.781
						c-25.888,15.163-40.25,40.003-30.449,54.83L218.991,940.941z"/>
					<g>
						<polygon class="st4" points="309.305,862.463 314.711,870.637 259.681,906.991 253.953,898.324 						"/>
						<polygon class="st4" points="320.592,879.52 326.163,887.631 271.801,924.975 265.916,916.405 						"/>
					</g>
				</g>
				<g>
					<path class="st5" d="M259.082,1057.779c-28.195-3.981-23.752-46.872,4.538-42.627
						C292.09,1019.404,286.22,1061.639,259.082,1057.779z"/>
					<path class="st5" d="M344.599,1033.715l-6.028-7.269c-40.493,25.171-82.218-30.45-48.62-62.605l-5.594-7.597
						C240.185,995.898,294.28,1067.139,344.599,1033.715z"/>
					<path class="st5" d="M278.402,1023.027c11.144,14.136,39.524,7.686,61.641-11.439c-11.675-14.469-21.63-27.102-35.402-45.464
						c-25.119,17.488-36.803,43.409-26.238,56.905L278.402,1023.027z"/>
					<g>
						<polygon class="st5" points="362.656,938 368.676,945.92 316.475,986.231 310.171,977.94 						"/>
						<polygon class="st5" points="375.369,954.455 381.525,962.311 329.893,1003.347 323.463,995.145 						"/>
					</g>
				</g>
			</g>
		</g>
	</g>
	<g>
		<g>
			<g>
				<path class="st1" d="M344.92,1136.196c-20.891,18.744-49.704-14.37-28.57-32.491
					C337.438,1085.658,365.418,1117.803,344.92,1136.196L344.92,1136.196z"/>
				<path class="st1" d="M413.533,1112.536l-6.374-6.978c-38.5,26.903-84.167-24.872-52.378-59.613
					c-1.515-1.76-2.514-2.983-6.052-7.25C307.101,1081.479,365.751,1148.072,413.533,1112.536z"/>
				<path class="st1" d="M346.92,1105.656c14,16.11,44.977,0.349,60.83-14.984c-9.26-10.354-20.902-23.213-38.104-43.425
					C352.686,1060.745,332.777,1089.408,346.92,1105.656L346.92,1105.656z"/>
				<g>
					<polygon class="st1" points="425.791,1015.627 432.425,1023.23 382.755,1066.62 375.89,1058.751 					"/>
					<polygon class="st1" points="439.644,1031.488 446.383,1039.031 397.183,1082.955 390.224,1075.164 					"/>
				</g>
			</g>
			<g>
				<g>
					<path class="st1" d="M383.899,1209.083c-19.87-20.861,10.973-49.445,30.34-29.11
						C433.814,1200.331,403.714,1229.692,383.899,1209.083z"/>
					<path class="st1" d="M481.576,1183.507l-6.65-6.724c-37.414,28.427-84.933-21.22-54.971-57.313
						c-3.959-4.242-2.586-2.761-6.423-6.935C374.383,1156.96,434.985,1221.058,481.576,1183.507z"/>
					<path class="st1" d="M414.783,1179.447c14.736,15.391,44.95-1.642,60.13-17.575c-12.912-13.259-23.081-23.661-40.052-41.782
						c-16.303,14.271-34.845,43.853-20.077,59.359L414.783,1179.447z"/>
					<g>
						<polygon class="st1" points="489.546,1085.95 496.566,1093.321 448.869,1138.872 441.657,1131.299 						"/>
						<polygon class="st1" points="504.216,1101.317 511.319,1108.632 464.015,1154.59 456.727,1147.085 						"/>
					</g>
				</g>
				<g>
					<path class="st1" d="M455.422,1280.974c-20.468-19.998,9.273-49.725,29.307-30.15
						C504.944,1270.511,475.738,1300.759,455.422,1280.974z"/>
					<path class="st1" d="M552.105,1252.091l-6.87-6.506c-36.982,29.993-85.119-18.708-56.971-55.391l-6.689-6.687
						C444.528,1229.026,505.886,1291.775,552.105,1252.091z"/>
					<path class="st1" d="M485.254,1250.28c14.975,14.664,44.495-2.81,59.482-19.607c-16.541-15.946-25.678-24.673-41.544-40.415
						C487.477,1205.082,469.986,1235.364,485.254,1250.28L485.254,1250.28z"/>
					<g>
						<polygon class="st1" points="556.622,1154.172 563.952,1161.333 517.894,1208.541 510.405,1201.224 						"/>
						<polygon class="st1" points="571.924,1169.111 579.322,1176.224 533.59,1223.747 526.04,1216.487 						"/>
					</g>
				</g>
				<g>
					<path class="st1" d="M528.758,1350.212c-20.858-19.165,7.766-49.965,28.453-30.958
						C577.98,1338.471,549.392,1369.302,528.758,1350.212z"/>
					<path class="st1" d="M624.56,1318.705l-7.045-6.323c-35.585,30.42-85.867-15.805-58.525-53.799l-6.884-6.492
						C516.338,1298.976,580.21,1358.745,624.56,1318.705z"/>
					<path class="st1" d="M557.72,1318.694c15.361,14.209,44.4-4.068,58.921-21.228c-27.2-24.717-35.814-32.829-42.715-39.271
						c-15.088,15.11-31.908,45.998-16.205,60.5L557.72,1318.694z"/>
					<g>
						<polygon class="st1" points="626.291,1220.59 633.872,1227.568 589.17,1276.063 581.46,1268.964 						"/>
						<polygon class="st1" points="642.109,1235.153 649.724,1242.106 605.291,1290.846 597.55,1283.778 						"/>
					</g>
				</g>
			</g>
		</g>
		<g>
			<g>
				<path class="st2" d="M312.546,1131.365c-7.984-9.15-7.214-22.639,1.631-30.213c11.288-9.669,29.334-4.614,34.246,9.886
					C355.981,1132.779,328.3,1149.407,312.546,1131.365z"/>
				<path class="st2" d="M411.35,1110.146l-6.374-6.978c-39.059,27.199-83.904-25.277-52.284-59.693l-6.028-7.269
					C306.346,1077.534,362.377,1146.457,411.35,1110.146z"/>
				<path class="st2" d="M344.744,1103.162c13.962,16.151,45.003,0.396,60.856-14.888c-24.869-27.844-29.688-33.665-38.039-43.477
					C350.581,1058.263,330.622,1086.913,344.744,1103.162L344.744,1103.162z"/>
				<g>
					<polygon class="st2" points="423.749,1013.276 430.378,1020.883 380.636,1064.191 373.776,1056.318 					"/>
					<path class="st2" d="M437.586,1029.146c1.593,1.837,2.634,2.987,6.716,7.556l-49.268,43.847
						c-4.163-4.66-5.275-5.889-6.939-7.808L437.586,1029.146z"/>
				</g>
			</g>
			<g>
				<g>
					<path class="st3" d="M381.586,1206.655c-8.276-8.688-8.12-22.171,0.369-30.138c13.628-12.772,36.186-2.521,36.047,16.213
						C417.859,1211.933,394.563,1220.379,381.586,1206.655z"/>
					<path class="st3" d="M479.298,1181.204l-6.65-6.724c-37.518,28.425-84.863-21.385-54.902-57.377
						c-1.589-1.679-2.557-2.754-6.397-6.958C372.162,1154.491,432.596,1218.755,479.298,1181.204z"/>
					<path class="st3" d="M412.509,1177.059c14.598,15.461,44.971-1.604,60.146-17.493c-9.787-10.081-21.44-21.95-39.993-41.834
						C416.306,1132.011,397.77,1161.545,412.509,1177.059L412.509,1177.059z"/>
					<g>
						<polygon class="st3" points="487.379,1083.675 494.399,1091.045 446.643,1136.534 439.43,1128.961 						"/>
						<polygon class="st3" points="502.027,1099.056 509.127,1106.374 461.765,1152.273 454.481,1144.765 						"/>
					</g>
				</g>
				<g>
					<path class="st4" d="M453.038,1278.646c-20.416-19.92,9.224-49.746,29.339-30.12
						C502.579,1268.364,473.144,1298.387,453.038,1278.646z"/>
					<path class="st4" d="M549.752,1249.862l-6.87-6.506c-37.033,29.986-85.077-18.829-56.916-55.446l-6.668-6.707
						C441.942,1227,504.527,1288.619,549.752,1249.862z"/>
					<path class="st4" d="M482.903,1247.982c15.12,14.866,44.869-3.177,59.505-19.549c-8.657-8.324-21.592-20.666-41.506-40.452
						c-15.732,14.809-33.247,45.062-17.998,60.002L482.903,1247.982z"/>
					<g>
						<polygon class="st4" points="554.359,1151.961 561.689,1159.122 515.583,1206.282 508.093,1198.965 						"/>
						<polygon class="st4" points="569.655,1166.905 577.039,1174.028 531.259,1221.506 523.722,1214.234 						"/>
					</g>
				</g>
				<g>
					<path class="st5" d="M526.319,1347.966c-20.834-19.101,7.732-49.954,28.478-30.934
						C575.443,1336.12,547.085,1367.164,526.319,1347.966z"/>
					<path class="st5" d="M622.147,1316.54l-7.045-6.323c-36.109,30.816-85.438-16.464-58.479-53.847l-6.87-6.507
						C513.896,1296.784,577.92,1356.401,622.147,1316.54z"/>
					<path class="st5" d="M555.308,1316.474c12.561,11.588,39.519,1.735,58.94-21.182c-24.594-22.349-35.803-32.878-42.684-39.301
						c-15.178,15.171-31.926,46.073-16.255,60.484L555.308,1316.474z"/>
					<g>
						<polygon class="st5" points="623.967,1218.424 631.532,1225.414 586.79,1273.871 579.093,1266.758 						"/>
						<polygon class="st5" points="639.77,1232.999 647.367,1239.964 602.896,1288.67 595.17,1281.587 						"/>
					</g>
				</g>
			</g>
		</g>
	</g>
	<g>
		<g>
			<g>
				<path class="st1" d="M605.956,1419.471c-21.175-18.505,6.547-50.118,27.729-31.607
					C654.753,1406.399,627.094,1438.067,605.956,1419.471z"/>
				<path class="st1" d="M700.975,1385.818l-7.179-6.175c-35.44,31.602-85.848-14.216-59.778-52.449l-7.045-6.323
					C592.503,1368.579,656.931,1427.262,700.975,1385.818z"/>
				<path class="st1" d="M634.182,1387.292c12.644,11.133,39.311,1.048,58.422-22.554c-9.204-7.948-23.543-20.464-43.656-38.303
					c-14.754,15.521-30.745,46.866-14.765,60.858L634.182,1387.292z"/>
				<g>
					<polygon class="st1" points="700.417,1287.582 708.183,1294.417 664.631,1343.946 656.758,1337.016 					"/>
					<polygon class="st1" points="716.639,1301.833 724.429,1308.65 681.095,1358.37 673.201,1351.462 					"/>
				</g>
			</g>
			<g>
				<g>
					<path class="st1" d="M681.76,1484.752c-21.457-18.166,5.801-50.181,27.16-32.097
						C730.265,1470.657,703.282,1502.904,681.76,1484.752z"/>
					<path class="st1" d="M776.142,1449.455l-7.266-6.076c-34.231,31.532-86.6-11.881-60.72-51.391l-7.183-6.171
						C667.354,1434.365,733.696,1490.76,776.142,1449.455z"/>
					<path class="st1" d="M709.406,1452.075c12.865,10.858,39.318,0.332,58.016-23.569c-26.685-22.472-17.213-14.456-44.369-37.541
						c-20.502,22.41-26.473,50.235-13.646,61.11L709.406,1452.075z"/>
					<g>
						<polygon class="st1" points="773.821,1351.154 781.725,1357.881 739.075,1408.189 731.083,1401.387 						"/>
						<polygon class="st1" points="790.346,1365.165 798.287,1371.862 755.812,1422.318 747.788,1415.551 						"/>
					</g>
				</g>
				<g>
					<path class="st1" d="M758.365,1548.613c-21.701-17.88,5.207-50.189,26.707-32.475
						C806.697,1533.997,779.893,1566.392,758.365,1548.613z"/>
					<path class="st1" d="M852.227,1512.031l-7.352-5.975c-33.961,32.126-86.46-11.007-61.45-50.548l-7.284-6.055
						C743.484,1498.246,809.45,1554.686,852.227,1512.031z"/>
					<path class="st1" d="M785.55,1515.551c12.998,10.706,39.36-0.293,57.682-24.356c-27.609-22.625-17.969-14.697-44.914-36.943
						C778.2,1476.913,772.555,1504.872,785.55,1515.551L785.55,1515.551z"/>
					<g>
						<polygon class="st1" points="848.491,1413.719 856.529,1420.338 814.6,1471.248 806.494,1464.572 						"/>
						<polygon class="st1" points="865.264,1427.532 873.324,1434.135 831.533,1485.158 823.409,1478.503 						"/>
					</g>
				</g>
				<g>
					<path class="st1" d="M871.491,1632.259c-19.408-2.067-42.473-27.378-43.599-34.08c-2.242-14.122,10.626-29.352,28.711-21.721
						C885.522,1588.611,897.381,1635.15,871.491,1632.259z"/>
					<path class="st1" d="M924.75,1570.41c-0.064-0.051-6.7-5.355-6.762-5.405c-6.432,35.387-42.316,16.959-58.448-5.182
						c-5.392-7.616-9.925-25.606,0.041-41.816l-7.353-5.975c-11.87,18.223-10.853,43.301,5.265,60.155
						C878.071,1593.752,921.082,1617.445,924.75,1570.41z"/>
					<path class="st1" d="M867.354,1581.995c17.094,13.706,37.686,9.455,45.259-34.715c-21.833-17.516-13.735-11-38.153-30.703
						c-16.845,19.43-29.343,47.61-7.104,65.419L867.354,1581.995z"/>
					<g>
						<path class="st1" d="M924.186,1475.477c0.133,0.107,1.794,1.458,1.935,1.545c0.022,0.001,0.022,0.017,0.024,0.037
							l-36.333,55.431l-7.047-5.69L924.186,1475.477z"/>
						<polygon class="st1" points="926.145,1477.059 903.798,1543.726 897.096,1538.342 						"/>
					</g>
				</g>
			</g>
		</g>
		<g>
			<g>
				<path class="st2" d="M603.475,1417.294c-21.144-18.466,6.52-50.129,27.75-31.589
					C652.235,1404.152,624.714,1435.941,603.475,1417.294z"/>
				<path class="st2" d="M698.515,1383.704l-7.168-6.187c-35.444,31.616-85.757-14.41-59.741-52.489l-7.045-6.323
					C589.466,1367.199,655.293,1424.34,698.515,1383.704z"/>
				<path class="st2" d="M631.722,1385.134c12.651,11.134,39.313,1.076,58.437-22.518c-21.396-18.566-37.684-33.053-43.632-38.328
					c-14.795,15.541-30.771,46.9-14.805,60.847L631.722,1385.134z"/>
				<g>
					<polygon class="st2" points="698.03,1285.464 705.781,1292.311 662.196,1341.811 654.336,1334.868 					"/>
					<polygon class="st2" points="714.237,1299.727 722.018,1306.551 678.653,1356.244 670.767,1349.328 					"/>
				</g>
			</g>
			<g>
				<g>
					<path class="st3" d="M679.246,1482.632c-21.492-18.286,5.933-50.159,27.177-32.083
						C727.767,1468.551,700.768,1500.784,679.246,1482.632z"/>
					<path class="st3" d="M773.654,1447.373l-7.266-6.076c-34.495,31.744-86.216-12.419-60.691-51.424l-7.183-6.171
						C664.867,1432.231,731.15,1488.702,773.654,1447.373z"/>
					<path class="st3" d="M706.909,1449.969c12.866,10.846,39.309,0.362,58.029-23.541c-27.219-22.943-17.811-14.976-44.344-37.568
						c-20.522,22.406-26.495,50.202-13.683,61.109L706.909,1449.969z"/>
					<g>
						<polygon class="st3" points="771.381,1349.078 779.285,1355.804 736.608,1406.089 728.616,1399.288 						"/>
						<polygon class="st3" points="787.895,1363.098 795.836,1369.795 753.335,1420.229 745.312,1413.462 						"/>
					</g>
				</g>
				<g>
					<path class="st4" d="M785.551,1543.724c-17.639,21.561-50.428-5.486-32.69-26.902
						C770.57,1495.451,803.122,1522.242,785.551,1543.724L785.551,1543.724z"/>
					<path class="st4" d="M849.709,1509.985l-7.352-5.975c-33.963,32.093-86.475-11.01-61.428-50.573l-7.276-6.064
						C740.971,1496.153,806.908,1552.632,849.709,1509.985z"/>
					<path class="st4" d="M783.031,1513.476c12.987,10.725,39.367-0.285,57.692-24.333c-26.973-22.121-17.415-14.251-44.899-36.96
						c-20.134,22.659-25.783,50.622-12.792,61.294L783.031,1513.476z"/>
					<g>
						<polygon class="st4" points="846.01,1411.675 854.048,1418.295 812.098,1469.187 803.992,1462.512 						"/>
						<polygon class="st4" points="862.783,1425.489 870.834,1432.098 829.024,1483.106 820.907,1476.442 						"/>
					</g>
				</g>
				<g>
					<path class="st5" d="M866.618,1628.357c-11.871-1.402-27.558-12.231-37.277-24.088c-12.821-15.739,5.304-38.506,23.473-30.853
						C881.851,1585.588,893.028,1631.606,866.618,1628.357z"/>
					<path class="st5" d="M922.434,1568.559l-6.762-5.405c-9.93,46.263-86.26-2.249-58.609-47.193l-7.353-5.975
						c-12.914,19.81-9.173,44.901,4.124,59.258C874.525,1590.939,917.594,1614.45,922.434,1568.559z"/>
					<path class="st5" d="M863.632,1579.011c17.283,13.856,38.247,9.586,46.994-33.319c-21.763-17.469-13.689-10.969-38.688-31.151
						c-9.5,10.951-32.823,44.822-8.304,64.472L863.632,1579.011z"/>
					<g>
						<path class="st5" d="M921.68,1473.452c0.536,0.433,3.905,3.155,4.422,3.572l0.011-0.002l0.017,0.002
							c0.013,0.006,0.014,0.021,0.014,0.035l-38.399,53.766l-7.504-6.062L921.68,1473.452z"/>
						<polygon class="st5" points="926.145,1477.059 901.729,1542.064 895.027,1536.68 						"/>
					</g>
				</g>
			</g>
		</g>
	</g>
	<g>
		<g>
			<g>
				<path class="st1" d="M1021.568,1604.116c-8.495,11.438-26.621,24.646-40.318,25.862c-23.626,2.213-15.763-33.02,4.83-48.55
					C1013.443,1560.929,1031.346,1590.696,1021.568,1604.116z"/>
				<path class="st1" d="M1001.711,1563.536c9.611-15.845,9.611-35.722-0.164-51.511l-7.496,5.81
					c26.25,45.077-51.362,92.421-59.982,45.597l-6.942,5.198C931.138,1621.684,989.466,1583.723,1001.711,1563.536z"/>
				<path class="st1" d="M985.696,1580.77c21.103-15.915,9.638-45.152-6.493-64.719c-25.529,19.52-17.215,13.199-39.556,30.082
					c7.994,46.122,30.659,46.243,46.05,34.636L985.696,1580.77z"/>
				<g>
					<polygon class="st1" points="926.145,1477.059 955.533,1537.563 948.668,1542.762 					"/>
					<path class="st1" d="M926.141,1477.053c0,0,0.058-0.056,0.117-0.081c0.192-0.147,4.088-3.132,4.31-3.302l40.071,52.385
						l-7.646,5.856C962.943,1531.837,926.141,1477.053,926.141,1477.053z"/>
				</g>
			</g>
			<g>
				<g>
					<path class="st1" d="M1094.823,1550.399c-22.009,17.52-48.173-15.393-26.099-32.966
						C1090.658,1500.013,1117.022,1532.769,1094.823,1550.399z"/>
					<path class="st1" d="M1078.875,1450.818l-7.389,5.943c24.44,39.941-29.213,82.277-62.444,49.454l-7.496,5.81
						C1042.57,1554.783,1111.112,1500.537,1078.875,1450.818z"/>
					<path class="st1" d="M1068.251,1516.842c15.861-12.597,3.986-43.373-11.643-61.558c-10.222,8.205-21.273,17.022-45.602,36.108
						C1028.986,1516.068,1055.159,1527.294,1068.251,1516.842L1068.251,1516.842z"/>
					<g>
						<polygon class="st1" points="982.068,1433.741 990.217,1427.34 1031.092,1479.1 1022.83,1485.59 						"/>
						<polygon class="st1" points="999.031,1420.339 1007.141,1413.898 1048.259,1465.465 1040.033,1471.999 						"/>
					</g>
				</g>
				<g>
					<path class="st1" d="M1172.978,1487.129c-21.906,18.087-48.439-14.534-26.824-32.379
						C1168.019,1436.771,1194.723,1469.247,1172.978,1487.129z"/>
					<path class="st1" d="M1154.785,1387.891l-7.227,6.136c25.344,39.412-27.294,83.094-61.331,50.804l-7.353,5.987
						C1120.789,1492.728,1188.221,1436.885,1154.785,1387.891z"/>
					<path class="st1" d="M1145.669,1454.169c16.391-13.462,1.633-45-13.021-61.283c-7.955,6.66-23.239,19.531-44.773,37.089
						c18.29,24.004,44.633,35.061,57.795,24.193L1145.669,1454.169z"/>
					<g>
						<polygon class="st1" points="1057.696,1372.981 1065.666,1366.398 1107.673,1417.244 1099.575,1423.932 						"/>
						<polygon class="st1" points="1074.329,1359.244 1082.259,1352.621 1124.533,1403.246 1116.473,1409.977 						"/>
					</g>
				</g>
				<g>
					<path class="st1" d="M1249.8,1421.882c-21.008,18.459-48.979-12.934-27.627-31.697
						C1243.257,1371.736,1271.279,1403.088,1249.8,1421.882z"/>
					<path class="st1" d="M1229.103,1323.123l-7.076,6.306c26.428,38.7-25.307,83.658-60.014,52.324l-7.227,6.137
						C1197.71,1428.827,1263.847,1371.192,1229.103,1323.123z"/>
					<path class="st1" d="M1221.674,1389.617c13.851-12.12,4.537-40.78-14.578-60.94c-15.585,13.841-29.202,25.609-43.798,38.184
						C1182.441,1390.765,1209.095,1400.684,1221.674,1389.617L1221.674,1389.617z"/>
					<g>
						<polygon class="st1" points="1131.717,1310.623 1139.522,1303.881 1182.779,1353.668 1174.835,1360.53 						"/>
						<polygon class="st1" points="1147.953,1296.507 1155.712,1289.723 1199.267,1339.249 1191.366,1346.159 						"/>
					</g>
				</g>
			</g>
		</g>
		<g>
			<g>
				<path class="st2" d="M1020.743,1601.481c-4.277,7.949-11.528,15.159-18.753,20.594c-56.081,42.194-47.317-35.407-3.781-45.317
					C1014.872,1572.99,1024.937,1593.377,1020.743,1601.481z"/>
				<path class="st2" d="M998.979,1514.015l-7.496,5.81c21.18,36.417-23.651,69.727-44.982,65.356
					c-9.463-1.913-13.369-10.461-14.809-19.968l-6.942,5.198c0.587,12.371,4.004,24.666,16.154,27.29
					C965.024,1602.963,1028.401,1561.614,998.979,1514.015z"/>
				<path class="st2" d="M981.882,1583.646c22.823-17.253,10.886-46.02-5.253-65.623c-12.727,9.749-26.182,20.02-39.022,29.638
					c6.514,46.121,28.172,48.13,44.276,35.984L981.882,1583.646z"/>
				<g>
					<polygon class="st2" points="926.145,1477.059 953.414,1539.168 946.549,1544.367 					"/>
					<path class="st2" d="M926.145,1477.059c0.003,0.004-0.002-0.003-0.002-0.003c0.013-0.004,1.872-1.43,1.883-1.438l40.038,52.411
						l-7.189,5.49L926.145,1477.059z"/>
				</g>
			</g>
			<g>
				<g>
					<path class="st3" d="M1095.884,1522.709c17.363,21.724-16.255,48.392-33.441,26.425
						C1045.378,1527.317,1078.545,1501.016,1095.884,1522.709L1095.884,1522.709z"/>
					<path class="st3" d="M1076.344,1452.854l-7.389,5.943c24.253,39.801-28.921,82.673-62.48,49.409l-7.496,5.81
						C1039.979,1556.808,1108.522,1502.557,1076.344,1452.854z"/>
					<path class="st3" d="M1065.683,1518.882c13.225-10.496,8.208-38.483-11.6-61.567c-27.317,21.736-17.552,14.018-45.627,36.077
						C1026.349,1517.984,1052.445,1529.326,1065.683,1518.882L1065.683,1518.882z"/>
					<g>
						<polygon class="st3" points="979.551,1435.715 987.705,1429.319 1028.545,1481.107 1020.279,1487.592 						"/>
						<polygon class="st3" points="996.527,1422.328 1004.638,1415.886 1045.72,1467.482 1037.493,1474.016 						"/>
					</g>
				</g>
				<g>
					<path class="st4" d="M1170.422,1489.24c-21.877,18.093-48.411-14.526-26.799-32.4
						C1165.433,1438.915,1192.216,1471.327,1170.422,1489.24z"/>
					<path class="st4" d="M1152.309,1389.993l-7.226,6.136c25.295,39.413-27.355,83.065-61.373,50.754l-7.367,5.971
						C1118.243,1494.814,1185.708,1439.024,1152.309,1389.993z"/>
					<path class="st4" d="M1143.138,1456.259c13.632-11.266,6.449-39.679-12.974-61.293c-3.43,2.872-21.065,17.714-44.801,37.056
						C1103.488,1455.844,1129.86,1467.196,1143.138,1456.259L1143.138,1456.259z"/>
					<g>
						<polygon class="st4" points="1055.235,1375.013 1063.206,1368.43 1105.173,1419.309 1097.076,1425.996 						"/>
						<path class="st4" d="M1071.869,1361.276c4.795-3.96,3.075-2.529,7.946-6.608l42.233,50.658
							c-4.945,4.14-3.209,2.696-8.074,6.714L1071.869,1361.276z"/>
					</g>
				</g>
				<g>
					<path class="st5" d="M1247.297,1424.071c-21.346,18.596-48.883-13.179-27.599-31.721
						C1240.789,1373.907,1268.787,1405.281,1247.297,1424.071z"/>
					<path class="st5" d="M1226.687,1325.291l-7.087,6.294c26.478,38.967-25.488,83.623-60.062,52.271l-7.227,6.136
						C1195.207,1430.974,1261.379,1373.408,1226.687,1325.291z"/>
					<path class="st5" d="M1219.2,1391.781c15.844-13.855,0.955-44.6-14.524-60.954c-17.737,15.67-24.778,21.697-43.831,38.148
						C1174.279,1385.778,1203.208,1405.78,1219.2,1391.781L1219.2,1391.781z"/>
					<g>
						<polygon class="st5" points="1129.305,1312.701 1137.12,1305.969 1180.333,1355.793 1172.38,1362.646 						"/>
						<polygon class="st5" points="1145.559,1298.602 1153.317,1291.817 1196.828,1341.382 1188.927,1348.292 						"/>
					</g>
				</g>
			</g>
		</g>
	</g>
	<g>
		<g>
			<g>
				<path class="st1" d="M1327.522,1352.163c-21.048,19.345-49.23-11.863-28.554-30.865
					C1319.488,1302.164,1348.48,1332.622,1327.522,1352.163z"/>
				<path class="st1" d="M1303.844,1254.015l-6.873,6.522c27.671,38.01-22.852,84.397-58.421,54.062l-7.037,6.349
					C1275.572,1360.706,1340.182,1301.071,1303.844,1254.015z"/>
				<path class="st1" d="M1298.452,1320.745c12.39-11.553,5.272-38.988-16.41-60.484c-12.122,11.56-37.684,34.918-42.614,39.437
					C1253.425,1316.19,1282.771,1335.169,1298.452,1320.745L1298.452,1320.745z"/>
				<g>
					<polygon class="st1" points="1206.214,1244.395 1213.789,1237.449 1258.492,1285.941 1250.76,1293.032 					"/>
					<polygon class="st1" points="1221.981,1229.865 1229.49,1222.862 1274.529,1271.043 1266.858,1278.197 					"/>
				</g>
			</g>
			<g>
				<g>
					<path class="st1" d="M1400.854,1282.051c-20.474,20.135-49.634-10.162-29.567-29.896
						C1391.836,1232.077,1420.853,1262.506,1400.854,1282.051z"/>
					<path class="st1" d="M1373.86,1184.718l-6.62,6.774c28.981,36.979-19.903,85.397-56.563,55.961l-6.834,6.563
						C1348.564,1291.952,1412.954,1231.725,1373.86,1184.718z"/>
					<path class="st1" d="M1370.752,1251.62c15.189-14.823-2.212-44.884-18.438-59.886c-7.261,7.284-21.989,22.172-41.254,40.783
						C1325.516,1248.487,1355.454,1266.664,1370.752,1251.62L1370.752,1251.62z"/>
					<g>
						<polygon class="st1" points="1276.087,1178.356 1283.38,1171.179 1329.661,1218.168 1322.189,1225.521 						"/>
						<polygon class="st1" points="1291.306,1163.38 1298.524,1156.145 1345.183,1202.759 1337.781,1210.177 						"/>
					</g>
				</g>
				<g>
					<path class="st1" d="M1471.938,1209.013c-19.542,20.85-50.076-8.059-30.714-28.716
						C1460.913,1159.465,1491.495,1188.314,1471.938,1209.013z"/>
					<path class="st1" d="M1441.081,1112.775l-6.317,7.05c30.509,35.706-16.624,86.066-54.292,58.114l-6.613,6.781
						C1420.633,1221.563,1481.111,1156.924,1441.081,1112.775z"/>
					<path class="st1" d="M1440.669,1179.782c14.518-15.55-4.041-44.839-20.813-59.113c-12.94,14.113-26.118,28.366-39.575,42.32
						C1395.387,1178.477,1425.965,1195.424,1440.669,1179.782L1440.669,1179.782z"/>
					<g>
						<polygon class="st1" points="1343.279,1110.222 1350.243,1102.803 1398.309,1147.964 1391.142,1155.599 						"/>
						<path class="st1" d="M1357.805,1094.736c4.25-4.557,2.794-2.984,6.9-7.463l48.495,44.7c-4.335,4.729-2.825,3.094-7.108,7.688
							L1357.805,1094.736z"/>
					</g>
				</g>
				<g>
					<path class="st1" d="M1540.248,1132.554c-18.862,22.099-50.402-5.717-32.02-27.251
						C1526.881,1083.515,1558.825,1110.854,1540.248,1132.554z"/>
					<path class="st1" d="M1504.829,1037.818l-5.953,7.352c32.764,34.646-12.839,86.723-51.477,60.554l-6.318,7.05
						C1488.825,1147.181,1547.702,1080.468,1504.829,1037.818z"/>
					<path class="st1" d="M1507.649,1104.815c11.552-13.609-0.366-40.181-23.604-58.063c-22.771,27.375-29.209,34.573-37.501,44.05
						C1462.407,1105.687,1493.676,1121.158,1507.649,1104.815L1507.649,1104.815z"/>
					<g>
						<path class="st1" d="M1407.184,1039.782c1.34-1.535,0.169-0.172,6.571-7.674l50.1,42.894
							c-6.667,7.811-5.412,6.349-6.803,7.944L1407.184,1039.782z"/>
						<path class="st1" d="M1420.881,1023.76c2.975-3.484,1.584-1.832,6.484-7.726l50.591,42.314
							c-5.06,6.084-3.623,4.378-6.722,8.009L1420.881,1023.76z"/>
					</g>
				</g>
			</g>
		</g>
		<g>
			<g>
				<path class="st2" d="M1326.506,1324.365c19.07,20.327-12.729,49.729-31.492,29.094
					C1276.332,1332.913,1307.586,1304.192,1326.506,1324.365L1326.506,1324.365z"/>
				<path class="st2" d="M1301.49,1256.249l-6.873,6.522c27.638,38.058-22.999,84.322-58.477,54.003l-7.037,6.349
					C1273.125,1362.923,1337.774,1303.338,1301.49,1256.249z"/>
				<path class="st2" d="M1296.031,1322.974c12.317-11.366,5.484-38.808-16.335-60.488c-6.992,6.511-27.373,25.576-42.671,39.38
					C1250.931,1318.283,1280.27,1337.429,1296.031,1322.974L1296.031,1322.974z"/>
				<g>
					<polygon class="st2" points="1203.875,1246.54 1211.451,1239.593 1256.105,1288.13 1248.373,1295.22 					"/>
					<polygon class="st2" points="1219.663,1232.026 1227.172,1225.023 1272.161,1273.251 1264.49,1280.405 					"/>
				</g>
			</g>
			<g>
				<g>
					<path class="st3" d="M1398.468,1284.4c-20.406,20.083-49.568-10.211-29.532-29.93
						C1389.325,1234.55,1418.765,1264.566,1398.468,1284.4z"/>
					<path class="st3" d="M1371.592,1187.039l-6.62,6.773c29.22,37.388-20.229,85.092-56.629,55.896l-6.854,6.542
						C1346.757,1294.722,1409.574,1232.829,1371.592,1187.039z"/>
					<path class="st3" d="M1368.402,1253.933c15.236-14.892-2.253-44.971-18.37-59.911c-25.245,25.323-34.616,34.286-41.298,40.741
						C1323.163,1250.741,1353.08,1268.951,1368.402,1253.933L1368.402,1253.933z"/>
					<g>
						<polygon class="st3" points="1273.836,1180.572 1281.129,1173.394 1327.354,1220.438 1319.883,1227.791 						"/>
						<path class="st3" d="M1289.055,1165.595c4.429-4.381,2.949-2.908,7.243-7.216l46.602,46.671
							c-4.449,4.463-2.842,2.862-7.425,7.397L1289.055,1165.595z"/>
					</g>
				</g>
				<g>
					<path class="st4" d="M1469.636,1211.468c-8.211,8.82-21.774,9.324-30.161,1.295c-13.339-12.769-4.659-35.945,14.338-36.925
						C1472.764,1174.866,1482.857,1197.321,1469.636,1211.468z"/>
					<path class="st4" d="M1438.917,1115.19l-6.317,7.05c30.463,35.751-16.8,86.017-54.388,58.026l-6.62,6.774
						C1418.308,1223.929,1478.802,1159.319,1438.917,1115.19z"/>
					<path class="st4" d="M1438.408,1182.195c12.371-13.199,1.139-40.475-20.734-59.146c-14.084,15.361-21.128,22.954-39.628,42.274
						C1393.068,1180.76,1423.728,1197.856,1438.408,1182.195L1438.408,1182.195z"/>
					<g>
						<path class="st4" d="M1341.104,1112.494c4.286-4.497,2.843-2.972,6.992-7.399l48.003,45.228
							c-4.387,4.681-2.869,3.073-7.193,7.612L1341.104,1112.494z"/>
						<path class="st4" d="M1355.657,1097.028c5.789-6.175,4.131-4.39,6.929-7.443l48.43,44.771
							c-2.777,3.029-1.141,1.27-7.135,7.664L1355.657,1097.028z"/>
					</g>
				</g>
				<g>
					<path class="st5" d="M1538.048,1135.132c-18.567,21.93-50.448-5.479-31.975-27.305
						C1524.448,1086.207,1556.73,1113.153,1538.048,1135.132z"/>
					<path class="st5" d="M1502.79,1040.336l-5.953,7.352c32.171,34.123-12.524,86.981-51.602,60.451l-6.318,7.05
						C1487.223,1150.127,1545.031,1082.517,1502.79,1040.336z"/>
					<path class="st5" d="M1505.496,1107.338c13.846-16.222-6-44.583-23.511-58.108c-19.394,23.317-26.746,31.637-37.564,44
						c16.096,15.151,47.25,30.306,61.076,14.107L1505.496,1107.338z"/>
					<g>
						<path class="st5" d="M1405.126,1042.133c4.082-4.676,2.677-3.05,6.604-7.653l50.028,42.978
							c-4.074,4.773-2.613,3.081-6.834,7.919L1405.126,1042.133z"/>
						<path class="st5" d="M1418.857,1026.131c5.048-5.912,3.662-4.268,6.519-7.704l50.516,42.403
							c-2.898,3.484-1.453,1.773-6.754,7.983L1418.857,1026.131z"/>
					</g>
				</g>
			</g>
		</g>
	</g>
	<g>
		<g>
			<g>
				<path class="st1" d="M1607.121,1049.349c-17.841,23.357-50.771-2.806-33.565-25.324
					C1590.612,1001.228,1624.709,1025.846,1607.121,1049.349z"/>
				<path class="st1" d="M1566.044,956.797c-1.308,1.903-2.22,3.15-5.483,7.697c35.191,32.732-7.977,87.338-47.795,63.411
					c-3.506,4.454-2.255,2.887-5.898,7.394C1558.086,1068.223,1610.496,995.544,1566.044,956.797z"/>
				<path class="st1" d="M1572.95,1023.572c12.938-17.224-8.582-44.097-27.079-56.574c-6.905,9.625-21.347,28.959-34.766,46.081
					c16.671,13.988,48.684,27.717,61.846,10.491L1572.95,1023.572z"/>
				<g>
					<polygon class="st1" points="1468.882,964.394 1474.958,956.445 1527.464,996.357 1521.124,1004.653 					"/>
					<polygon class="st1" points="1481.511,947.781 1487.451,939.764 1540.521,978.923 1534.307,987.308 					"/>
				</g>
			</g>
			<g>
				<g>
					<path class="st1" d="M1667.134,963.841c-15.845,24.414-51.043,1.412-35.274-22.884
						C1647.37,916.888,1683.188,938.934,1667.134,963.841z"/>
					<path class="st1" d="M1619.396,874.375l-4.815,8.116c37.347,29.699-1.261,88.155-43.154,66.542l-5.385,7.765
						C1618.052,985.794,1668.658,910.911,1619.396,874.375z"/>
					<path class="st1" d="M1631.223,940.548c11.281-17.561-10.154-42.536-31.109-54.47c-7.402,11.958-10.854,17.798-31.28,48.314
						c17.558,12.852,50.813,24.41,62.391,6.155L1631.223,940.548z"/>
					<g>
						<path class="st1" d="M1523.335,888.71c5.484-8.193,4.361-6.502,5.48-8.222l55.163,36.151c-1.125,1.728-0.138,0.243-5.777,8.67
							L1523.335,888.71z"/>
						<path class="st1" d="M1534.611,871.488c5.289-8.204,4.244-6.569,5.315-8.287l55.8,35.16c-1.077,1.727-0.142,0.265-5.619,8.765
							L1534.611,871.488z"/>
					</g>
				</g>
				<g>
					<path class="st1" d="M1707.908,883.762c-26.314,8.877-38.573-32.376-11.551-41.807
						C1724.113,832.252,1735.055,874.667,1707.908,883.762z"/>
					<path class="st1" d="M1665.078,787.661c-3.667,8.01-3.182,6.953-3.957,8.548c39.889,25.678,6.875,88.331-36.927,70.04
						c-0.92,1.602-0.122,0.247-4.798,8.126C1674.267,899.478,1717.07,818.5,1665.078,787.661z"/>
					<path class="st1" d="M1683.105,852.581c10.107-19.449-15.416-42.183-36.035-51.426c-7.07,14.56-16.386,32.419-26.756,50.698
						c18.941,11.564,52.352,20.019,62.792,0.727L1683.105,852.581z"/>
					<g>
						<polygon class="st1" points="1571.109,810.329 1575.715,801.806 1633.855,832.944 1628.918,842.078 						"/>
						<polygon class="st1" points="1580.629,792.519 1585.033,783.941 1643.869,813.744 1639.13,822.973 						"/>
					</g>
				</g>
				<g>
					<path class="st1" d="M1767.32,769.865c-1.645,9.766-10.248,19.112-21.144,19.448c-22.393,0.74-29.424-32.108-8.058-42.693
						C1753.813,738.793,1770.518,751.663,1767.32,769.865z"/>
					<path class="st1" d="M1700.359,696.473c-0.187,0.604-2.583,8.378-2.791,8.973c43.872,20.842,16.655,87.278-28.568,73.649
						l-3.921,8.565C1721.683,806.882,1756.805,720.663,1700.359,696.473z"/>
					<path class="st1" d="M1726.131,758.901c6.697-16.693-12.821-37.929-41.885-46.827c-6.379,18.758-12.961,35.305-20.622,53.151
						c20.659,9.753,54.375,14.027,62.507-6.325L1726.131,758.901z"/>
					<g>
						<polygon class="st1" points="1610.158,729.457 1613.658,720.696 1674.955,745.04 1671.116,754.637 						"/>
						<polygon class="st1" points="1617.384,711.167 1620.64,702.374 1682.629,724.898 1679.042,734.581 						"/>
					</g>
				</g>
			</g>
		</g>
		<g>
			<g>
				<path class="st2" d="M1605.046,1052.065c-17.798,23.314-50.748-2.821-33.513-25.393
					C1589.407,1003.582,1622.491,1029.518,1605.046,1052.065z"/>
				<path class="st2" d="M1564.183,959.446l-5.51,7.679c35.084,32.783-8.175,87.308-47.911,63.326
					c-1.381,1.759-2.201,2.756-5.934,7.367C1555.075,1070.274,1609.149,998.86,1564.183,959.446z"/>
				<path class="st2" d="M1570.928,1026.218c13.055-16.895-8.649-44.217-26.93-56.609c-0.696,1-16.432,22.56-34.884,45.999
					c16.647,14.021,48.621,27.806,61.815,10.608L1570.928,1026.218z"/>
				<g>
					<polygon class="st2" points="1467.008,966.849 1473.082,958.898 1525.507,998.918 1519.167,1007.213 					"/>
					<polygon class="st2" points="1479.678,950.256 1485.617,942.238 1538.603,981.512 1532.389,989.896 					"/>
				</g>
			</g>
			<g>
				<g>
					<path class="st3" d="M1665.256,966.754c-15.535,24.409-50.948,1.769-35.214-22.977
						C1645.381,919.977,1681.625,941.394,1665.256,966.754z"/>
					<path class="st3" d="M1617.747,877.155l-4.815,8.117c37.671,30.107-1.788,88.001-43.349,66.422
						c-5.288,7.625-4.298,6.208-5.4,7.754C1616.619,988.861,1665.8,913.011,1617.747,877.155z"/>
					<path class="st3" d="M1629.407,943.367c10.31-16.081-6.999-40.818-30.98-54.564c-14.516,23.452-29.445,45.411-31.424,48.228
						c17.939,13.194,50.968,24.374,62.405,6.335L1629.407,943.367z"/>
					<g>
						<polygon class="st3" points="1521.638,891.246 1527.136,883.031 1582.207,919.323 1576.413,927.983 						"/>
						<polygon class="st3" points="1532.964,874.044 1538.3,865.765 1594.006,901.075 1588.366,909.829 						"/>
					</g>
				</g>
				<g>
					<path class="st4" d="M1719.285,875.664c-14.334,26.547-50.748,5.475-37.115-19.759
						C1695.824,830.587,1733.761,848.81,1719.285,875.664z"/>
					<path class="st4" d="M1663.735,790.595c-2.419,5.265-1.547,3.419-4.025,8.518c39.893,25.881,6.499,88.341-37.148,69.927
						l-4.816,8.116C1671.219,901.784,1716.34,822.144,1663.735,790.595z"/>
					<path class="st4" d="M1681.501,855.552c8.281-15.018-7.414-38.67-35.825-51.527c-5.392,11.106-14.702,29.036-26.94,50.612
						c24.457,15.038,53.914,17.298,62.765,0.915L1681.501,855.552z"/>
					<g>
						<polygon class="st4" points="1569.688,812.961 1574.292,804.436 1632.331,835.763 1627.394,844.898 						"/>
						<polygon class="st4" points="1579.271,795.167 1583.672,786.589 1642.406,816.593 1637.667,825.822 						"/>
					</g>
				</g>
				<g>
					<path class="st5" d="M1752.882,790.626c-25.677,11.791-41.657-28.101-15.964-40.768
						C1763.587,736.633,1779.232,778.273,1752.882,790.626z"/>
					<path class="st5" d="M1699.408,699.548c-1.973,6.379-1.487,4.86-2.878,8.946c43.022,20.682,16.776,87.445-28.873,73.534
						l-3.921,8.565C1721.127,810.379,1755.344,723.841,1699.408,699.548z"/>
					<path class="st5" d="M1724.864,762.071c6.29-15.861-10.967-37.448-41.639-46.994c-6.04,17.776-13.425,35.76-20.856,53.073
						c26.776,12.771,55.674,10.981,62.496-6.081L1724.864,762.071z"/>
					<g>
						<path class="st5" d="M1609.027,732.152c0.814-1.891,0.375-0.804,3.549-8.752l61.193,24.602
							c-3.483,8.708-2.782,7.001-3.888,9.579L1609.027,732.152z"/>
						<polygon class="st5" points="1616.382,713.882 1619.633,705.088 1681.521,727.886 1677.935,737.57 						"/>
					</g>
				</g>
			</g>
		</g>
	</g>
	<g>
		<g>
			<g>
				<path class="st1" d="M1799.396,664.985c-2.436,12.018-13.915,21.099-25.876,18.021c-17.112-4.404-22.067-29.163-5.916-41.417
					C1783.564,629.704,1803.861,644.13,1799.396,664.985z"/>
				<path class="st1" d="M1722.095,598.179c-0.139,1.261,0.058-0.174-1.324,9.277c46.246,12.949,30.883,84.289-16.762,76.943
					c-0.964,3.471-0.367,1.468-2.698,8.999C1760.468,704.872,1782.501,612.22,1722.095,598.179z"/>
				<path class="st1" d="M1757.586,655.818c4.642-21.718-25.773-36.606-48.718-39.633c-3.324,18.446-6.625,35.478-12.138,55.29
					c30.542,9.363,57.193,1.401,60.857-15.658L1757.586,655.818z"/>
				<g>
					<polygon class="st1" points="1638.512,644.088 1640.702,635.224 1704.981,649.991 1702.524,659.974 					"/>
					<path class="st1" d="M1642.749,625.585c1.434-6.673,1.05-4.717,1.788-8.865l64.798,12.293
						c-0.821,4.561-0.395,2.421-2.027,10.062L1642.749,625.585z"/>
				</g>
			</g>
			<g>
				<g>
					<path class="st1" d="M1813.531,552.026c-0.848,22.314-24.271,30.569-36.529,15.284c-7.909-9.567-7.102-23.858,0.81-32.55
						C1792.232,518.992,1814.586,531.835,1813.531,552.026z"/>
					<path class="st1" d="M1724.544,501.067l0.682,9.324c49.079,3.294,46.046,77.476-2.094,78.479l-1.036,9.31
						C1784.14,599.661,1787.161,502.538,1724.544,501.067z"/>
					<path class="st1" d="M1770.743,550.873c0.674-20.276-27.848-31.482-55.532-29.587c0.975,27.931-0.673,45.777-1.465,56.185
						c22.649,2.722,56.049-3.831,56.997-26.599V550.873z"/>
					<g>
						<path class="st1" d="M1651.59,561.198c0.1-1.01,0.091-1.329,0.381-8.77l65.904,2.566c-0.352,8.854-0.345,9.07-0.452,10.206
							L1651.59,561.198z"/>
						<polygon class="st1" points="1652.261,542.915 1652.286,534.192 1718.238,533.694 1718.207,543.901 						"/>
					</g>
				</g>
				<g>
					<path class="st1" d="M1801.059,454.506c-14.862,24.184-49.951-1.751-35.645-27.523
						C1780.485,399.887,1816.725,428.769,1801.059,454.506z"/>
					<path class="st1" d="M1705.988,405.886c2.446,7.666,1.87,5.776,2.743,8.932c48.274-7.602,62.564,65.867,14.977,76.941
						c0.549,4.864,0.368,2.874,0.836,9.309C1784.721,489.886,1767.88,393.229,1705.988,405.886z"/>
					<path class="st1" d="M1762.039,444.364c-2.902-16.265-27.862-26.563-60.622-16.711c4.634,16.69,9.221,41.506,10.723,54.962
						c23.64-2.204,54.169-16.198,49.898-38.252L1762.039,444.364z"/>
					<g>
						<path class="st1" d="M1647.904,480.101c-1.021-6.795-0.672-4.756-1.403-8.474l64.896-11.762
							c0.82,4.222,0.458,2.092,1.668,10.043L1647.904,480.101z"/>
						<path class="st1" d="M1644.732,462.469c-0.358-2.05-0.703-3.333-1.898-8.367l64.219-15.028
							c1.372,5.817,1.801,7.467,2.244,9.929L1644.732,462.469z"/>
					</g>
				</g>
				<g>
					<path class="st1" d="M1763.163,316.285c3.484,3.586,6.019,8.207,7.279,13.033c7.2,26.898-27.924,39.128-40.048,12.458
						C1719.768,318.406,1745.617,297.834,1763.163,316.285z"/>
					<path class="st1" d="M1666.148,317.644c4.345,7.104,3.79,6.187,4.797,7.997c45.462-19.03,75.739,50.105,32.205,71.342
						l2.838,8.902C1763.835,380.824,1722.335,290.894,1666.148,317.644z"/>
					<path class="st1" d="M1729.705,342.09c-7.574-16.657-35.265-18.399-62.864-2.282c5.333,9.56,15.412,30.199,22.908,50.9
						c22.677-7.51,49.292-28.087,39.956-48.619L1729.705,342.09z"/>
					<g>
						<path class="st1" d="M1626.664,402.8c-0.203-0.5-3.002-7.426-3.211-7.845l60.516-26.224c0.279,0.574,3.62,8.808,3.861,9.399
							L1626.664,402.8z"/>
						<path class="st1" d="M1619.646,386.61c-1.702-3.771-0.82-1.945-3.678-7.57l58.996-29.484c3.364,6.66,2.319,4.482,4.432,9.13
							L1619.646,386.61z"/>
					</g>
				</g>
			</g>
		</g>
		<g>
			<g>
				<path class="st2" d="M1788.703,683.525c-23.223,15.902-45.406-21.568-21.752-38.485
					C1791.513,627.16,1812.925,666.95,1788.703,683.525z"/>
				<path class="st2" d="M1721.663,601.359l-1.355,9.274c46.828,13.416,29.431,84.301-17.17,76.863l-2.778,8.977
					C1760.077,708.357,1781.878,615.778,1721.663,601.359z"/>
				<path class="st2" d="M1756.861,659.208c3.912-18.27-18.766-35.814-48.552-39.922c-3.438,19.09-6.496,33.926-12.427,55.237
					c21.427,6.686,56.569,6.462,60.98-15.316L1756.861,659.208z"/>
				<g>
					<polygon class="st2" points="1637.841,646.825 1640.024,637.959 1704.222,653.072 1701.766,663.056 					"/>
					<path class="st2" d="M1642.164,628.322c0.117-0.548,1.804-8.382,1.885-8.865l64.725,12.673
						c-0.103,0.599-2.001,9.451-2.128,10.046L1642.164,628.322z"/>
				</g>
			</g>
			<g>
				<g>
					<path class="st3" d="M1806.41,572.764c-20.17,20.198-48.268-13.059-28.606-34.439
						C1798.588,515.683,1827.679,551.491,1806.41,572.764z"/>
					<path class="st3" d="M1724.777,504.261c0.703,9.627,0.615,8.251,0.651,9.326c49.461,3.746,45.124,77.775-2.652,78.472
						c-0.606,5.438-0.75,7.017-1.114,9.302C1784.484,603.3,1786.281,506.147,1724.777,504.261z"/>
					<path class="st3" d="M1770.606,554.38c0.671-17.108-22.065-32.003-55.286-29.967c0.852,24.407-1.088,46.663-1.809,56.187
						c23.335,2.959,56.216-3.948,57.095-26.222L1770.606,554.38z"/>
					<g>
						<path class="st3" d="M1651.377,563.914c0.339-4.337,0.261-2.79,0.487-8.78l65.885,3.011c-0.277,7.011-0.151,4.76-0.567,10.203
							L1651.377,563.914z"/>
						<polygon class="st3" points="1652.256,545.608 1652.274,536.884 1718.228,536.845 1718.194,547.052 						"/>
					</g>
				</g>
				<g>
					<path class="st4" d="M1801.634,458.27c-14.714,23.743-50.059-1.621-35.401-27.793
						C1781.466,403.332,1817.491,432.664,1801.634,458.27z"/>
					<path class="st4" d="M1706.961,408.935c1.406,4.409,0.797,2.372,2.625,8.968c48.749-7.249,61.39,66.478,14.481,77.037
						c0.12,1.072,0-0.419,0.711,9.321C1784.171,493.664,1769.486,396.645,1706.961,408.935z"/>
					<path class="st4" d="M1762.71,447.836c-4.29-22.23-37.984-23.753-60.457-17.172c1.283,3.974,7.573,31.281,10.234,55.056
						c23.621-2.027,54.478-15.834,50.223-37.885L1762.71,447.836z"/>
					<g>
						<polygon class="st4" points="1648.304,482.724 1647.014,474.227 1711.996,462.951 1713.539,473.017 						"/>
						<path class="st4" d="M1645.229,465.072c-0.985-5.174-0.607-3.382-1.785-8.392l64.33-14.547
							c1.417,6.087,0.959,3.949,2.119,9.956L1645.229,465.072z"/>
					</g>
				</g>
				<g>
					<path class="st5" d="M1764.781,319.82c4.329,4.473,7.541,10.8,7.886,17.899c1.512,31.193-41.157,28.437-43.016-1.564
						C1728.275,315.455,1750.009,304.679,1764.781,319.82z"/>
					<path class="st5" d="M1667.814,320.369c2.664,4.354,1.674,2.654,4.683,8.064c45.93-18.703,75.193,50.654,31.623,71.6
						l2.839,8.902C1766.078,383.843,1723.364,294.5,1667.814,320.369z"/>
					<path class="st5" d="M1731.177,345.328c-8.573-18.89-38.973-16.468-62.822-2.806c8.659,17.165,14.292,28.567,22.456,51.117
						c31.543-10.178,47.558-32.461,40.365-48.312L1731.177,345.328z"/>
					<g>
						<polygon class="st5" points="1627.657,405.222 1624.457,397.368 1685.179,371.623 1689.015,381.033 						"/>
						<path class="st5" d="M1620.721,388.983c-2.831-6.257-2.068-4.66-3.58-7.629l59.235-29.002
							c1.733,3.429,0.922,1.721,4.318,9.187L1620.721,388.983z"/>
					</g>
				</g>
			</g>
		</g>
	</g>
	<g>
		<g>
			<g>
				<path class="st1" d="M1709.179,228.784c10.058,29.081-31.534,38.92-41.987,9.826c-1.978-5.476-1.982-11.509,0.169-16.847
					C1674.955,203.006,1701.995,208.013,1709.179,228.784z"/>
				<path class="st1" d="M1603.375,239.984l6.656,6.53c38.764-30.136,86.688,28.604,49.438,60.543
					c2.482,3.651,2.773,4.198,5.012,7.862C1713.908,276.615,1651.446,198.668,1603.375,239.984z"/>
				<path class="st1" d="M1671.145,247.076c-13.637-17.098-43.584-3.892-61.352,14.165c17.314,18.418,29.83,34.977,35.241,43.078
					c20.348-13.209,40.185-39.597,26.11-57.244L1671.145,247.076z"/>
				<g>
					<path class="st1" d="M1587.151,332.201c-2.168-2.989-0.984-1.444-5.087-6.574l51.71-40.939c4.893,6.145,3.5,4.323,6.196,8.014
						L1587.151,332.201z"/>
					<polygon class="st1" points="1576.379,318.61 1570.941,312.323 1620.21,268.477 1626.839,276.139 					"/>
				</g>
			</g>
			<g>
				<g>
					<path class="st1" d="M1585.647,141.458c13.1-20.037,47.87-1.956,42.67,20.951c-1.742,7.717-8.247,14-18.422,14.778
						C1590.025,178.619,1575.98,156.243,1585.647,141.458L1585.647,141.458z"/>
					<path class="st1" d="M1525.296,182.756c2.891,1.577,1.121,0.552,8.071,4.697c30.521-39.065,90.451,6.81,63.111,46.256
						c0.486,0.439,6.448,5.804,6.898,6.276C1641.468,190.53,1561.554,131.241,1525.296,182.756z"/>
					<path class="st1" d="M1592.65,172.734c-18.089-12.782-43.179,7.303-55.843,29.027c27.759,18.047,34.897,24.576,44.995,32.992
						c22.098-24.299,25.143-51.602,10.848-62.02L1592.65,172.734z"/>
					<g>
						<polygon class="st1" points="1532.904,276.319 1526.233,271.209 1565.945,218.551 1573.995,224.73 						"/>
						<path class="st1" d="M1518.839,265.814c-6.993-4.953-5.323-3.812-6.918-4.839l36.788-54.74
							c1.704,1.106,0.239,0.093,8.327,5.812L1518.839,265.814z"/>
					</g>
				</g>
				<g>
					<path class="st1" d="M1485.654,91.226c6.744-18.189,35.166-16.388,43.687,2.078c11.763,25.478-29.282,40.722-42.544,14.196
						C1484.268,102.505,1483.636,96.67,1485.654,91.226L1485.654,91.226z"/>
					<path class="st1" d="M1435.973,144.744c2.214,0.647,0.512,0.105,8.909,2.876c21.32-44.612,89.198-14.179,72.215,30.66
						l8.201,4.476C1549.714,126.388,1460.62,86.741,1435.973,144.744z"/>
					<path class="st1" d="M1499.215,120.013c-18.296-7.522-39.244,13.709-47.817,40.835c20.798,7.681,31.871,12.108,51.645,21.967
						c15.82-29.06,12.099-56.241-3.83-62.803L1499.215,120.013z"/>
					<g>
						<polygon class="st1" points="1465.143,234.667 1457.258,231.094 1483.751,170.695 1493.036,174.902 						"/>
						<path class="st1" d="M1448.546,227.438c-5.029-2.07-6.121-2.557-8.092-3.244l23.603-61.586
							c2.353,0.832,3.881,1.497,9.474,3.792L1448.546,227.438z"/>
					</g>
				</g>
				<g>
					<path class="st1" d="M1425.228,64.164c5.412,26.074-37.94,34.895-45.418,7.275
						C1372.079,42.995,1419.457,36.505,1425.228,64.164z"/>
					<path class="st1" d="M1340.632,124.955l9.315,1.15c12.814-47.585,84.121-30.679,77.034,16.011l8.99,2.627
						C1447.855,84.734,1354.252,64.614,1340.632,124.955z"/>
					<path class="st1" d="M1397.874,88.688c-21.789-4.502-36.313,26.374-39.057,49.309c25.482,3.948,40.176,7.559,55.322,11.44
						c8.739-29.142,1.92-56.742-16.266-60.75L1397.874,88.688z"/>
					<g>
						<polygon class="st1" points="1387.387,207.843 1378.63,205.914 1392.655,141.469 1402.665,143.683 						"/>
						<polygon class="st1" points="1369.069,203.926 1360.206,202.26 1371.66,137.308 1381.745,139.202 						"/>
					</g>
				</g>
			</g>
		</g>
		<g>
			<g>
				<path class="st2" d="M1674.662,217.651c11.2-10.072,31.015-3.083,36.955,14.211c6.635,19.401-12.12,34.713-30.732,23.591
					C1667.233,247.318,1663.553,227.64,1674.662,217.651L1674.662,217.651z"/>
				<path class="st2" d="M1605.655,242.221l6.657,6.529c39.036-29.987,86.48,29.409,48.934,60.96
					c0.543,0.764,1.001,1.552,4.901,7.933C1717.129,278.808,1653.177,202.062,1605.655,242.221z"/>
				<path class="st2" d="M1673.374,249.872c-14.344-18.014-44.943-2.869-61.455,13.631c13.639,14.511,26.306,30.628,34.841,43.397
					c27.054-17.243,38.05-42.668,26.613-57.03L1673.374,249.872z"/>
				<g>
					<path class="st2" d="M1588.662,334.277c-3.781-5.204-2.612-3.67-4.996-6.645l52.057-40.497c2.83,3.553,1.522,1.833,6.092,8.094
						L1588.662,334.277z"/>
					<path class="st2" d="M1578.049,320.558c-0.208-0.273-5.209-6.03-5.434-6.29l49.64-43.426c0.425,0.491,6.216,7.162,6.613,7.675
						L1578.049,320.558z"/>
				</g>
			</g>
			<g>
				<g>
					<path class="st3" d="M1588.768,143.49c6.417-9.639,19.535-10.738,30.172-4.446c19.948,12.218,15.535,39.389-6.202,40.385
						C1592.925,180.498,1578.791,158.496,1588.768,143.49L1588.768,143.49z"/>
					<path class="st3" d="M1528.094,184.308l8.021,4.784c31.016-39.082,90.188,7.734,62.733,46.76
						c4.922,4.448,3.305,2.933,6.808,6.371C1644.215,192.772,1564.52,133.486,1528.094,184.308z"/>
					<path class="st3" d="M1595.508,174.856c-11.917-9.43-37.631-2.498-56.09,28.603c26.053,16.924,34.994,25.138,44.773,33.282
						c16.497-17.84,28.86-48.451,11.316-61.886L1595.508,174.856z"/>
					<g>
						<path class="st3" d="M1534.906,277.958c-1.527-1.321-2.555-2.058-6.617-5.167l40.141-52.332
							c4.728,3.629,6.1,4.632,7.991,6.251L1534.906,277.958z"/>
						<polygon class="st3" points="1520.968,267.314 1514.081,262.439 1551.304,207.993 1559.595,213.856 						"/>
					</g>
				</g>
				<g>
					<path class="st4" d="M1489.087,92.496c10.171-26.804,56.158-6.606,43.648,18.887
						C1520.896,135.555,1479.413,117.985,1489.087,92.496L1489.087,92.496z"/>
					<path class="st4" d="M1439.036,145.691l8.891,2.934c21.465-44.177,89.365-13.69,71.978,31.189
						c0.553,0.302,7.656,4.164,8.19,4.495C1553.434,127.338,1463.659,88.541,1439.036,145.691z"/>
					<path class="st4" d="M1502.465,121.363c-17.748-7.415-38.928,12.148-48.127,40.572c28.583,10.548,41.513,17.296,51.502,22.273
						c14.725-26.584,13.944-55.028-3.376-62.846L1502.465,121.363z"/>
					<g>
						<polygon class="st4" points="1467.579,235.764 1459.69,232.201 1486.617,171.994 1495.903,176.201 						"/>
						<polygon class="st4" points="1451.033,228.456 1442.981,225.144 1467.005,163.722 1476.445,167.595 						"/>
					</g>
				</g>
				<g>
					<path class="st5" d="M1410.181,47.571c13.879,3.108,21.172,15.038,18.401,25.895c-6.743,26.416-50.278,16.987-45.654-9.782
						C1382.927,56.617,1393.964,44,1410.181,47.571z"/>
					<path class="st5" d="M1343.823,125.349c0.611,0.075,8.708,1.066,9.313,1.165c13.086-47.783,84.21-29.541,76.925,16.503
						c8.824,2.578,7.168,2.079,8.975,2.674C1451.052,86.756,1357.895,64.525,1343.823,125.349z"/>
					<path class="st5" d="M1401.273,89.438c-16.028-3.744-35.168,15.752-39.338,49.043c26.183,4.057,44.41,8.96,55.25,11.735
						c9.193-29.98,1.699-56.891-15.913-60.779L1401.273,89.438z"/>
					<g>
						<path class="st5" d="M1390.054,208.525c-3.125-0.808-1.082-0.331-8.722-2.012l14.412-64.36
							c8.654,1.914,6.496,1.413,9.984,2.308L1390.054,208.525z"/>
						<polygon class="st5" points="1371.805,204.434 1362.941,202.777 1374.773,137.893 1384.858,139.785 						"/>
					</g>
				</g>
			</g>
		</g>
	</g>
	<g>
		<g>
			<g>
				<path class="st1" d="M1306.88,40.388c20.81,19.394-11.834,48.679-33.997,29.523C1249.605,49.825,1284.81,19.774,1306.88,40.388z
					"/>
				<path class="st1" d="M1240.44,123.988l9.293-0.865c2.008-48.505,76.766-48.286,78.394,0.433
					c7.055,0.703,5.712,0.559,9.314,1.005C1338.075,62.197,1240.031,61.94,1240.44,123.988z"/>
				<path class="st1" d="M1289.255,76.613c-17.126-0.24-31.509,22.994-28.399,56.196c18.008-1.002,36.028-1.213,56.021,0.326
					c2.381-22.697-4.818-56.365-27.624-56.521L1289.255,76.613z"/>
				<g>
					<path class="st1" d="M1301.689,195.575c-5.195-0.198-3.348-0.139-8.651-0.281l1.35-65.94c6.255,0.167,4.079,0.098,10.189,0.33
						L1301.689,195.575z"/>
					<polygon class="st1" points="1283.686,195.26 1275.125,195.417 1273.145,129.493 1283.32,129.307 					"/>
				</g>
			</g>
			<g>
				<g>
					<path class="st1" d="M1153.448,73.977c-8.412-27.628,42.242-39.444,47.365-11.511
						C1205.656,88.883,1161.332,99.875,1153.448,73.977L1153.448,73.977z"/>
					<path class="st1" d="M1146.537,146.891l8.708-3.307c-10.849-48.591,63.472-64.868,75.943-18.403
						c8.329-1.097,8.612-1.149,9.252-1.193C1227.321,62.841,1129.586,85.223,1146.537,146.891z"/>
					<path class="st1" d="M1182.139,88.727c-21.843,5.555-22.2,38.059-13.694,61.445c14.299-4.813,32.09-9.371,54.041-13.116
						c-4.389-33.86-24.119-52.656-40.348-48.328L1182.139,88.727z"/>
					<g>
						<polygon class="st1" points="1222.582,201.244 1214.459,202.954 1199.895,138.628 1209.807,136.539 						"/>
						<path class="st1" d="M1205.729,205.104c-4.686,1.167-2.651,0.609-7.958,2.183l-18.319-63.359
							c6.398-1.88,4.231-1.288,9.759-2.677L1205.729,205.104z"/>
					</g>
				</g>
				<g>
					<path class="st1" d="M1049.37,121.561c-10.192-16.112,8.85-38.481,29.618-33.805c19.191,4.318,20.044,29.489,1.589,39.755
						C1070.134,133.416,1055.768,131.676,1049.37,121.561L1049.37,121.561z"/>
					<path class="st1" d="M1062.009,193.675l7.561-5.457c-23.497-44.36,44.464-78.996,68.34-37.825
						c6.323-2.686,4.032-1.758,8.63-3.503C1117.701,90.811,1029.925,139.397,1062.009,193.675z"/>
					<path class="st1" d="M1080.947,128.171c-15.856,9.05-15.774,36.29,3.092,62.891c17.682-11.826,32.465-19.371,48.587-26.957
						c-9.931-23.856-33.119-46.803-51.681-35.933L1080.947,128.171z"/>
					<g>
						<polygon class="st1" points="1149.693,225.972 1142.391,229.756 1111.305,171.588 1120.287,166.937 						"/>
						<path class="st1" d="M1134.573,234.118c-3.783,2.131-1.998,1.061-7.093,4.22l-34.477-56.225
							c6.042-3.728,4.021-2.526,8.697-5.173L1134.573,234.118z"/>
					</g>
				</g>
				<g>
					<path class="st1" d="M964.455,161.37c6.924-6.765,17.349-9.358,25.551-5.927c20.216,8.497,12.15,41.978-12.533,43.487
						C956.949,200.167,948.601,176.559,964.455,161.37z"/>
					<path class="st1" d="M991.712,260.335l6.105-7.08c-32.616-36.813,22.834-87.675,56.781-53.918
						c4.312-3.351,5.534-4.341,7.41-5.662C1020.508,148.027,947.787,215.117,991.712,260.335z"/>
					<path class="st1" d="M993.965,192.374c-12.464,11.627-6.902,38.243,18.597,60.114c13.668-14.884,24.954-25.546,40.491-38.506
						c-14.136-18.357-42.517-37.447-59.089-21.607L993.965,192.374z"/>
					<g>
						<polygon class="st1" points="1085.367,269.476 1079.065,275.107 1034.26,226.709 1041.829,219.935 						"/>
						<path class="st1" d="M1072.397,281.491c-1.695,1.61-0.389,0.315-6.007,6.059l-47.277-45.986
							c6.438-6.575,5.186-5.329,7.164-7.219L1072.397,281.491z"/>
					</g>
				</g>
			</g>
		</g>
		<g>
			<g>
				<path class="st2" d="M1316.898,55.784c-1.685,27.03-46.795,26.291-47.728-0.668C1269.17,26.009,1318.64,27.73,1316.898,55.784z"
					/>
				<path class="st2" d="M1243.623,123.692l9.293-0.866c2.271-48.358,77.098-47.683,78.402,1.042
					c4.025,0.418,2.359,0.228,9.314,1.088C1341.484,63.377,1243.706,61.205,1243.623,123.692z"/>
				<path class="st2" d="M1292.786,76.653c-17.085-0.246-31.687,22.569-28.818,55.983c19.622-1.092,39.312-0.673,56.034,0.733
					c3.627-32.433-9.666-56.467-27.217-56.716L1292.786,76.653z"/>
				<g>
					<path class="st2" d="M1304.367,195.702c-5.203-0.236-3.35-0.163-8.663-0.343l1.829-65.928
						c6.255,0.212,4.079,0.127,10.189,0.403L1304.367,195.702z"/>
					<path class="st2" d="M1286.333,195.22c-0.373-0.009-8.192,0.147-8.565,0.154l-1.482-65.937c9.282-0.17,9.489-0.185,10.177-0.17
						L1286.333,195.22z"/>
				</g>
			</g>
			<g>
				<g>
					<path class="st3" d="M1157.071,72.912c-8.15-27.634,42.523-39.215,47.441-11.082
						C1209.095,88.078,1164.792,99.094,1157.071,72.912L1157.071,72.912z"/>
					<path class="st3" d="M1149.52,145.758c7.776-2.953,5.787-2.226,8.741-3.217c-10.318-48.762,64.029-64.236,76.096-17.777
						c6.694-0.882,4.386-0.618,9.267-1.072C1230.71,61.844,1133.415,85.084,1149.52,145.758z"/>
					<path class="st3" d="M1185.614,87.857c-20.923,5.228-22.98,36.608-14.233,61.326c11.609-4.243,35.523-9.464,54.166-12.652
						c-3.845-31.754-22.044-52.732-39.935-48.674L1185.614,87.857z"/>
					<g>
						<path class="st3" d="M1225.096,200.733c-0.399,0.053-7.735,1.616-8.128,1.699l-14.012-64.448
							c9.015-1.901,9.238-1.966,9.917-2.062L1225.096,200.733z"/>
						<path class="st3" d="M1208.205,204.483c-5.131,1.284-6.159,1.503-7.994,2.083l-17.762-63.517
							c2.364-0.731,3.979-1.097,9.792-2.559L1208.205,204.483z"/>
					</g>
				</g>
				<g>
					<path class="st4" d="M1052.579,119.579c-10.323-16.638,9.796-38.348,29.9-33.59c19.979,4.962,18.968,30.479,1.227,39.756
						C1073.311,131.657,1058.853,129.691,1052.579,119.579L1052.579,119.579z"/>
					<path class="st4" d="M1064.599,191.806c5.851-4.223,6.584-4.781,7.584-5.422c-22.404-43.323,44.344-80.035,68.663-37.237
						c2.091-0.927,3.558-1.446,8.676-3.388C1121.158,89.338,1032.993,137.507,1064.599,191.806z"/>
					<path class="st4" d="M1084.069,126.407c-19.927,11.242-11.172,43.228,2.549,62.929c15.791-10.566,41.091-23.453,48.825-26.518
						c-11.642-28.691-34.544-45.285-51.375-36.41L1084.069,126.407z"/>
					<g>
						<path class="st4" d="M1151.974,224.862c-1.973,0.917-0.37,0.123-7.325,3.732l-30.57-58.441c8.379-4.339,6.7-3.498,9.015-4.585
							L1151.974,224.862z"/>
						<path class="st4" d="M1136.787,232.865c-6.598,3.726-4.713,2.622-7.138,4.13l-33.987-56.523
							c2.824-1.743,0.787-0.56,8.756-5.071L1136.787,232.865z"/>
					</g>
				</g>
				<g>
					<path class="st5" d="M964.529,190.902c-21.014-20.251,17.186-54.252,35.15-32.9
						C1016.982,178.535,984.038,209.704,964.529,190.902L964.529,190.902z"/>
					<path class="st5" d="M993.803,257.911l6.104-7.08c-32.801-37.421,23.726-87.2,57.213-53.453
						c3.798-2.952,2.132-1.714,7.478-5.57C1023.727,146.327,949.949,212.11,993.803,257.911z"/>
					<path class="st5" d="M996.532,189.923c-13.272,12.69-5.813,39.407,18.143,60.266c13.849-15.092,25.529-25.481,40.766-38.2
						c-13.853-18.295-42.249-37.828-58.91-22.065L996.532,189.923z"/>
					<g>
						<polygon class="st5" points="1087.306,267.732 1081.012,273.369 1036.594,224.615 1044.165,217.844 						"/>
						<path class="st5" d="M1074.295,279.682c-3.776,3.594-2.482,2.319-6.061,5.984l-46.925-46.346
							c4.37-4.458,2.825-2.929,7.235-7.144L1074.295,279.682z"/>
					</g>
				</g>
			</g>
		</g>
	</g>
</g>
</svg>
